# 3ds Max Wavefront OBJ Exporter v0.97b - (c)2007 guruware
# File Created: 26.03.2019 09:46:01

mtllib BulletC.mtl

#
# object Cylinder001
#

v  7.2674 -7.2674 -42.7399
v  3.9331 -9.4953 -42.7399
v  0.0000 -10.2777 -42.7399
v  -3.9331 -9.4953 -42.7399
v  -7.2674 -7.2674 -42.7399
v  -9.4953 -3.9331 -42.7399
v  -10.2777 0.0000 -42.7399
v  -9.4953 3.9331 -42.7399
v  -7.2674 7.2674 -42.7399
v  -3.9331 9.4953 -42.7399
v  -0.0000 10.2777 -42.7399
v  3.9331 9.4953 -42.7399
v  7.2674 7.2674 -42.7399
v  9.4953 3.9331 -42.7399
v  10.2777 0.0000 -42.7399
v  9.4953 -3.9331 -42.7399
v  9.5372 3.9504 -40.0929
v  10.3230 -0.0000 -40.0929
v  7.2995 7.2995 -40.0929
v  3.9504 9.5372 -40.0929
v  -0.0000 10.3230 -40.0929
v  -3.9504 9.5372 -40.0929
v  -7.2995 7.2995 -40.0929
v  -9.5372 3.9504 -40.0929
v  -10.3230 0.0000 -40.0929
v  -9.5372 -3.9504 -40.0929
v  -7.2995 -7.2995 -40.0929
v  -3.9504 -9.5372 -40.0929
v  0.0000 -10.3230 -40.0929
v  3.9504 -9.5372 -40.0929
v  7.2995 -7.2995 -40.0929
v  9.5372 -3.9504 -40.0929
v  10.0548 4.1648 22.2007
v  10.8833 -0.0000 22.2007
v  11.4709 -0.0000 15.3544
v  10.5977 4.3897 15.3544
v  7.6956 7.6956 22.2007
v  8.1112 8.1112 15.3544
v  4.1649 10.0548 22.2007
v  4.3897 10.5977 15.3544
v  -0.0000 10.8833 22.2007
v  -0.0000 11.4709 15.3544
v  -4.1649 10.0548 22.2007
v  -4.3897 10.5977 15.3544
v  -7.6956 7.6956 22.2007
v  -8.1112 8.1112 15.3544
v  -10.0548 4.1648 22.2007
v  -10.5977 4.3897 15.3544
v  -10.8833 -0.0000 22.2007
v  -11.4709 -0.0000 15.3544
v  -10.0548 -4.1649 22.2007
v  -10.5977 -4.3897 15.3544
v  -7.6956 -7.6956 22.2007
v  -8.1112 -8.1112 15.3544
v  -4.1649 -10.0548 22.2007
v  -4.3897 -10.5977 15.3544
v  -0.0000 -10.8833 22.2007
v  -0.0000 -11.4709 15.3544
v  4.1649 -10.0548 22.2007
v  4.3897 -10.5977 15.3544
v  7.6956 -7.6956 22.2007
v  8.1112 -8.1112 15.3544
v  10.0548 -4.1648 22.2007
v  10.5977 -4.3897 15.3544
v  8.0673 3.3416 29.0471
v  5.2824 2.1881 35.8935
v  5.7177 -0.0000 35.8935
v  8.7319 -0.0000 29.0471
v  6.1744 6.1744 29.0471
v  4.0430 4.0430 35.8935
v  3.3416 8.0673 29.0471
v  2.1881 5.2824 35.8935
v  -0.0000 8.7319 29.0471
v  -0.0000 5.7177 35.8935
v  -3.3416 8.0673 29.0471
v  -2.1881 5.2824 35.8935
v  -6.1744 6.1744 29.0471
v  -4.0430 4.0430 35.8935
v  -8.0673 3.3416 29.0471
v  -5.2824 2.1881 35.8935
v  -8.7319 -0.0000 29.0471
v  -5.7177 -0.0000 35.8935
v  -8.0673 -3.3416 29.0471
v  -5.2824 -2.1881 35.8935
v  -6.1744 -6.1744 29.0471
v  -4.0430 -4.0430 35.8935
v  -3.3416 -8.0673 29.0471
v  -2.1881 -5.2824 35.8935
v  -0.0000 -8.7319 29.0471
v  -0.0000 -5.7177 35.8935
v  3.3416 -8.0673 29.0471
v  2.1881 -5.2824 35.8935
v  6.1744 -6.1744 29.0471
v  4.0430 -4.0430 35.8935
v  8.0673 -3.3416 29.0471
v  5.2824 -2.1881 35.8935
v  0.0000 -0.0000 42.7399
v  9.2153 3.8171 -38.3979
v  9.9746 -0.0000 -38.3979
v  9.9457 0.0000 -40.0864
v  9.1886 3.8061 -40.0864
v  7.0531 7.0531 -38.3979
v  7.0327 7.0327 -40.0864
v  3.8171 9.2153 -38.3979
v  3.8061 9.1886 -40.0864
v  -0.0000 9.9746 -38.3979
v  -0.0000 9.9457 -40.0864
v  -3.8171 9.2153 -38.3979
v  -3.8061 9.1886 -40.0864
v  -7.0531 7.0531 -38.3979
v  -7.0327 7.0327 -40.0864
v  -9.2153 3.8171 -38.3979
v  -9.1886 3.8061 -40.0864
v  -9.9746 0.0000 -38.3979
v  -9.9457 0.0000 -40.0864
v  -9.2153 -3.8171 -38.3979
v  -9.1886 -3.8061 -40.0864
v  -7.0531 -7.0531 -38.3979
v  -7.0327 -7.0327 -40.0864
v  -3.8171 -9.2153 -38.3979
v  -3.8061 -9.1886 -40.0864
v  -0.0000 -9.9746 -38.3979
v  0.0000 -9.9457 -40.0864
v  3.8171 -9.2153 -38.3979
v  3.8061 -9.1886 -40.0864
v  7.0531 -7.0531 -38.3979
v  7.0327 -7.0327 -40.0864
v  9.2153 -3.8171 -38.3979
v  9.1886 -3.8061 -40.0864
v  9.9341 4.1148 -14.9969
v  10.7526 -0.0000 -14.9969
v  10.3519 -0.0000 -38.4044
v  9.5639 3.9615 -38.4044
v  7.6032 7.6032 -14.9969
v  7.3199 7.3199 -38.4044
v  4.1148 9.9341 -14.9969
v  3.9615 9.5639 -38.4044
v  -0.0000 10.7526 -14.9969
v  -0.0000 10.3519 -38.4044
v  -4.1148 9.9341 -14.9969
v  -3.9615 9.5639 -38.4044
v  -7.6032 7.6032 -14.9969
v  -7.3199 7.3199 -38.4044
v  -9.9341 4.1148 -14.9969
v  -9.5639 3.9615 -38.4044
v  -10.7526 0.0000 -14.9969
v  -10.3519 0.0000 -38.4044
v  -9.9341 -4.1148 -14.9969
v  -9.5639 -3.9615 -38.4044
v  -7.6032 -7.6032 -14.9969
v  -7.3199 -7.3199 -38.4044
v  -4.1148 -9.9341 -14.9969
v  -3.9615 -9.5639 -38.4044
v  -0.0000 -10.7526 -14.9969
v  0.0000 -10.3519 -38.4044
v  4.1148 -9.9341 -14.9969
v  3.9615 -9.5639 -38.4044
v  7.6032 -7.6032 -14.9969
v  7.3199 -7.3199 -38.4044
v  9.9341 -4.1148 -14.9969
v  9.5639 -3.9615 -38.4044
# 161 vertices

vn -0.0000 0.0000 -1.0000
vn 0.0000 0.0000 -1.0000
vn 0.9237 0.3826 -0.0171
vn 0.9999 0.0000 -0.0171
vn 0.7070 0.7070 -0.0171
vn 0.3826 0.9237 -0.0171
vn 0.0000 0.9999 -0.0171
vn -0.3826 0.9237 -0.0171
vn -0.7070 0.7070 -0.0171
vn -0.9237 0.3826 -0.0171
vn -0.9999 0.0000 -0.0171
vn -0.9237 -0.3826 -0.0171
vn -0.7070 -0.7070 -0.0171
vn -0.3826 -0.9237 -0.0171
vn 0.0000 -0.9999 -0.0171
vn 0.3826 -0.9237 -0.0171
vn 0.7070 -0.7070 -0.0171
vn 0.9237 -0.3826 -0.0171
vn 0.9068 0.3756 0.1913
vn 0.9815 0.0000 0.1913
vn 0.9995 0.0000 0.0308
vn 0.9234 0.3825 0.0308
vn 0.6941 0.6941 0.1913
vn 0.7068 0.7068 0.0308
vn 0.3756 0.9068 0.1913
vn 0.3825 0.9234 0.0308
vn 0.0000 0.9815 0.1913
vn 0.0000 0.9995 0.0308
vn -0.3756 0.9068 0.1913
vn -0.3825 0.9234 0.0308
vn -0.6941 0.6941 0.1913
vn -0.7068 0.7068 0.0308
vn -0.9068 0.3756 0.1913
vn -0.9234 0.3825 0.0308
vn -0.9815 0.0000 0.1913
vn -0.9995 0.0000 0.0308
vn -0.9068 -0.3756 0.1913
vn -0.9234 -0.3825 0.0308
vn -0.6941 -0.6941 0.1913
vn -0.7068 -0.7068 0.0308
vn -0.3756 -0.9068 0.1913
vn -0.3825 -0.9234 0.0308
vn 0.0000 -0.9815 0.1913
vn 0.0000 -0.9995 0.0308
vn 0.3756 -0.9068 0.1913
vn 0.3825 -0.9234 0.0308
vn 0.6941 -0.6941 0.1913
vn 0.7068 -0.7068 0.0308
vn 0.9068 -0.3756 0.1913
vn 0.9234 -0.3825 0.0308
vn 0.8656 0.3585 0.3497
vn 0.7894 0.3270 0.5195
vn 0.8545 0.0000 0.5195
vn 0.9369 0.0000 0.3497
vn 0.6625 0.6625 0.3497
vn 0.6042 0.6042 0.5195
vn 0.3585 0.8656 0.3497
vn 0.3270 0.7894 0.5195
vn 0.0000 0.9369 0.3497
vn 0.0000 0.8545 0.5195
vn -0.3585 0.8656 0.3497
vn -0.3270 0.7894 0.5195
vn -0.6625 0.6625 0.3497
vn -0.6042 0.6042 0.5195
vn -0.8656 0.3585 0.3497
vn -0.7894 0.3270 0.5195
vn -0.9369 0.0000 0.3497
vn -0.8545 0.0000 0.5195
vn -0.8656 -0.3585 0.3497
vn -0.7894 -0.3270 0.5195
vn -0.6625 -0.6625 0.3497
vn -0.6042 -0.6042 0.5195
vn -0.3585 -0.8656 0.3497
vn -0.3270 -0.7894 0.5195
vn 0.0000 -0.9369 0.3497
vn 0.0000 -0.8545 0.5195
vn 0.3585 -0.8656 0.3497
vn 0.3270 -0.7894 0.5195
vn 0.6625 -0.6625 0.3497
vn 0.6042 -0.6042 0.5195
vn 0.8656 -0.3585 0.3497
vn 0.7894 -0.3270 0.5195
vn 0.0000 0.0000 1.0000
vn -0.0000 0.9999 -0.0171
vn 0.9237 0.3826 -0.0204
vn 0.9998 0.0000 -0.0204
vn 0.7070 0.7070 -0.0204
vn 0.3826 0.9237 -0.0204
vn 0.0000 0.9998 -0.0204
vn -0.3826 0.9237 -0.0204
vn -0.7070 0.7070 -0.0204
vn -0.9237 0.3826 -0.0204
vn -0.9998 0.0000 -0.0204
vn -0.9237 -0.3826 -0.0204
vn -0.7070 -0.7070 -0.0204
vn -0.3826 -0.9237 -0.0204
vn 0.0000 -0.9998 -0.0204
vn 0.3826 -0.9237 -0.0204
vn 0.7070 -0.7070 -0.0204
vn 0.9237 -0.3826 -0.0204
vn 0.0171 0.0034 0.9998
vn 0.0145 0.0097 0.9998
vn 0.0097 0.0145 0.9998
vn 0.0034 0.0171 0.9998
vn -0.0034 0.0171 0.9998
vn -0.0097 0.0145 0.9998
vn -0.0145 0.0097 0.9998
vn -0.0171 0.0034 0.9998
vn -0.0171 -0.0034 0.9998
vn -0.0145 -0.0097 0.9998
vn -0.0097 -0.0145 0.9998
vn -0.0034 -0.0171 0.9998
vn 0.0034 -0.0171 0.9998
vn 0.0097 -0.0145 0.9998
vn 0.0145 -0.0097 0.9998
vn 0.0171 -0.0034 0.9998
vn -0.0171 -0.0034 -0.9998
vn -0.0171 0.0034 -0.9998
vn -0.0145 0.0097 -0.9998
vn -0.0097 0.0145 -0.9998
vn -0.0034 0.0171 -0.9998
vn 0.0034 0.0171 -0.9998
vn 0.0097 0.0145 -0.9998
vn 0.0145 0.0097 -0.9998
vn 0.0171 0.0034 -0.9998
vn 0.0171 -0.0034 -0.9998
vn 0.0145 -0.0097 -0.9998
vn 0.0097 -0.0145 -0.9998
vn 0.0034 -0.0171 -0.9998
vn -0.0034 -0.0171 -0.9998
vn -0.0097 -0.0145 -0.9998
vn -0.0145 -0.0097 -0.9998
# 132 vertex normals

vt 0.1398 0.2167 0.0000
vt 0.1047 0.2165 0.0000
vt 0.0722 0.2029 0.0000
vt 0.0475 0.1779 0.0000
vt 0.0341 0.1454 0.0000
vt 0.0343 0.1102 0.0000
vt 0.0479 0.0778 0.0000
vt 0.0729 0.0530 0.0000
vt 0.1054 0.0397 0.0000
vt 0.1406 0.0398 0.0000
vt 0.1731 0.0534 0.0000
vt 0.1978 0.0784 0.0000
vt 0.2112 0.1110 0.0000
vt 0.2110 0.1461 0.0000
vt 0.1974 0.1786 0.0000
vt 0.1724 0.2034 0.0000
vt 0.3229 0.3510 0.0000
vt 0.3224 0.3789 0.0000
vt 0.2808 0.3779 0.0000
vt 0.2815 0.3500 0.0000
vt 0.3581 0.3518 0.0000
vt 0.3578 0.3797 0.0000
vt 0.3933 0.3518 0.0000
vt 0.3931 0.3797 0.0000
vt 0.4348 0.3518 0.0000
vt 0.4348 0.3797 0.0000
vt 0.4763 0.3518 0.0000
vt 0.4765 0.3797 0.0000
vt 0.5115 0.3518 0.0000
vt 0.5118 0.3797 0.0000
vt 0.5466 0.3510 0.0000
vt 0.5471 0.3789 0.0000
vt 0.5881 0.3500 0.0000
vt 0.5888 0.3779 0.0000
vt 0.6296 0.3490 0.0000
vt 0.6304 0.3769 0.0000
vt 0.6648 0.3481 0.0000
vt 0.6658 0.3760 0.0000
vt 0.0868 0.3424 0.0000
vt 0.0852 0.3703 0.0000
vt 0.0499 0.3686 0.0000
vt 0.0516 0.3407 0.0000
vt 0.1282 0.3444 0.0000
vt 0.1269 0.3723 0.0000
vt 0.1697 0.3464 0.0000
vt 0.1685 0.3743 0.0000
vt 0.2048 0.3481 0.0000
vt 0.2038 0.3760 0.0000
vt 0.2400 0.3490 0.0000
vt 0.2391 0.3769 0.0000
vt 0.5620 0.7432 0.0000
vt 0.5493 0.7564 0.0000
vt 0.4969 0.7457 0.0000
vt 0.5061 0.7303 0.0000
vt 0.5778 0.7293 0.0000
vt 0.5148 0.7135 0.0000
vt 0.5464 0.9397 0.0000
vt 0.5604 0.9541 0.0000
vt 0.4954 0.9670 0.0000
vt 0.4890 0.9500 0.0000
vt 0.5352 0.9263 0.0000
vt 0.4816 0.9345 0.0000
vt 0.5260 0.9131 0.0000
vt 0.4746 0.9193 0.0000
vt 0.5187 0.8996 0.0000
vt 0.4688 0.9041 0.0000
vt 0.5133 0.8856 0.0000
vt 0.4645 0.8884 0.0000
vt 0.5098 0.8711 0.0000
vt 0.4619 0.8723 0.0000
vt 0.5082 0.8562 0.0000
vt 0.4609 0.8559 0.0000
vt 0.5087 0.8410 0.0000
vt 0.4617 0.8392 0.0000
vt 0.5112 0.8259 0.0000
vt 0.4641 0.8226 0.0000
vt 0.5156 0.8111 0.0000
vt 0.4682 0.8063 0.0000
vt 0.5218 0.7967 0.0000
vt 0.4736 0.7906 0.0000
vt 0.5295 0.7829 0.0000
vt 0.4803 0.7755 0.0000
vt 0.5387 0.7696 0.0000
vt 0.4881 0.7606 0.0000
vt 0.6120 0.7662 0.0000
vt 0.6478 0.7984 0.0000
vt 0.6384 0.8030 0.0000
vt 0.5988 0.7752 0.0000
vt 0.6297 0.7577 0.0000
vt 0.6612 0.7951 0.0000
vt 0.5990 0.9192 0.0000
vt 0.6393 0.8892 0.0000
vt 0.6521 0.8930 0.0000
vt 0.6156 0.9282 0.0000
vt 0.5870 0.9101 0.0000
vt 0.6309 0.8846 0.0000
vt 0.5775 0.9008 0.0000
vt 0.6247 0.8798 0.0000
vt 0.5699 0.8909 0.0000
vt 0.6197 0.8747 0.0000
vt 0.5639 0.8801 0.0000
vt 0.6153 0.8690 0.0000
vt 0.5596 0.8684 0.0000
vt 0.6114 0.8623 0.0000
vt 0.5573 0.8559 0.0000
vt 0.6086 0.8544 0.0000
vt 0.5572 0.8430 0.0000
vt 0.6077 0.8456 0.0000
vt 0.5596 0.8300 0.0000
vt 0.6092 0.8366 0.0000
vt 0.5643 0.8175 0.0000
vt 0.6129 0.8280 0.0000
vt 0.5708 0.8057 0.0000
vt 0.6183 0.8204 0.0000
vt 0.5788 0.7948 0.0000
vt 0.6244 0.8139 0.0000
vt 0.5881 0.7846 0.0000
vt 0.6310 0.8082 0.0000
vt 0.6670 0.8448 0.0000
vt 0.6425 0.6012 0.0000
vt 0.5987 0.6012 0.0000
vt 0.5987 0.5819 0.0000
vt 0.6424 0.5819 0.0000
vt 0.6796 0.6012 0.0000
vt 0.6794 0.5819 0.0000
vt 0.0702 0.5804 0.0000
vt 0.0332 0.5777 0.0000
vt 0.0348 0.5584 0.0000
vt 0.0717 0.5611 0.0000
vt 0.1139 0.5836 0.0000
vt 0.1153 0.5643 0.0000
vt 0.1575 0.5868 0.0000
vt 0.1588 0.5675 0.0000
vt 0.1945 0.5895 0.0000
vt 0.1957 0.5701 0.0000
vt 0.2316 0.5913 0.0000
vt 0.2327 0.5719 0.0000
vt 0.2753 0.5934 0.0000
vt 0.2763 0.5740 0.0000
vt 0.3190 0.5955 0.0000
vt 0.3199 0.5762 0.0000
vt 0.3561 0.5973 0.0000
vt 0.3568 0.5780 0.0000
vt 0.3932 0.5982 0.0000
vt 0.3938 0.5788 0.0000
vt 0.4370 0.5993 0.0000
vt 0.4374 0.5799 0.0000
vt 0.4807 0.6003 0.0000
vt 0.4811 0.5810 0.0000
vt 0.5178 0.6012 0.0000
vt 0.5181 0.5819 0.0000
vt 0.5549 0.6012 0.0000
vt 0.5551 0.5819 0.0000
vt 0.2712 0.7224 0.0000
vt 0.2649 0.7393 0.0000
vt 0.0871 0.7354 0.0000
vt 0.0922 0.7193 0.0000
vt 0.2747 0.7051 0.0000
vt 0.0947 0.7027 0.0000
vt 0.2537 0.9474 0.0000
vt 0.2547 0.9649 0.0000
vt 0.0749 0.9581 0.0000
vt 0.0750 0.9415 0.0000
vt 0.2497 0.9302 0.0000
vt 0.0721 0.9252 0.0000
vt 0.2450 0.9133 0.0000
vt 0.0680 0.9090 0.0000
vt 0.2407 0.8969 0.0000
vt 0.0641 0.8930 0.0000
vt 0.2374 0.8808 0.0000
vt 0.0611 0.8770 0.0000
vt 0.2354 0.8651 0.0000
vt 0.0593 0.8613 0.0000
vt 0.2347 0.8496 0.0000
vt 0.0588 0.8458 0.0000
vt 0.2355 0.8342 0.0000
vt 0.0596 0.8307 0.0000
vt 0.2376 0.8190 0.0000
vt 0.0615 0.8153 0.0000
vt 0.2410 0.8039 0.0000
vt 0.0648 0.7995 0.0000
vt 0.2457 0.7883 0.0000
vt 0.0693 0.7835 0.0000
vt 0.2514 0.7723 0.0000
vt 0.0748 0.7675 0.0000
vt 0.2580 0.7559 0.0000
vt 0.0809 0.7515 0.0000
vt 0.6289 0.5383 0.0000
vt 0.5961 0.5708 0.0000
vt 0.5937 0.5672 0.0000
vt 0.6253 0.5359 0.0000
vt 0.5533 0.5883 0.0000
vt 0.5525 0.5840 0.0000
vt 0.5071 0.5881 0.0000
vt 0.5080 0.5839 0.0000
vt 0.4645 0.5702 0.0000
vt 0.4669 0.5666 0.0000
vt 0.4320 0.5374 0.0000
vt 0.4356 0.5350 0.0000
vt 0.4145 0.4947 0.0000
vt 0.4188 0.4938 0.0000
vt 0.4147 0.4485 0.0000
vt 0.4190 0.4493 0.0000
vt 0.4326 0.4059 0.0000
vt 0.4362 0.4083 0.0000
vt 0.4654 0.3734 0.0000
vt 0.4678 0.3770 0.0000
vt 0.5081 0.3559 0.0000
vt 0.5090 0.3601 0.0000
vt 0.5543 0.3561 0.0000
vt 0.5535 0.3603 0.0000
vt 0.5969 0.3739 0.0000
vt 0.5945 0.3775 0.0000
vt 0.6294 0.4067 0.0000
vt 0.6258 0.4091 0.0000
vt 0.6469 0.4495 0.0000
vt 0.6427 0.4503 0.0000
vt 0.6467 0.4957 0.0000
vt 0.6425 0.4948 0.0000
vt 0.3907 0.2258 0.0000
vt 0.3582 0.2122 0.0000
vt 0.3601 0.2095 0.0000
vt 0.3913 0.2226 0.0000
vt 0.3334 0.1872 0.0000
vt 0.3362 0.1854 0.0000
vt 0.3201 0.1546 0.0000
vt 0.3233 0.1540 0.0000
vt 0.3203 0.1194 0.0000
vt 0.3235 0.1201 0.0000
vt 0.3339 0.0870 0.0000
vt 0.3366 0.0888 0.0000
vt 0.3589 0.0622 0.0000
vt 0.3607 0.0649 0.0000
vt 0.3915 0.0488 0.0000
vt 0.3921 0.0521 0.0000
vt 0.4267 0.0490 0.0000
vt 0.4260 0.0522 0.0000
vt 0.4591 0.0626 0.0000
vt 0.4573 0.0653 0.0000
vt 0.4839 0.0876 0.0000
vt 0.4812 0.0894 0.0000
vt 0.4972 0.1202 0.0000
vt 0.4940 0.1208 0.0000
vt 0.4971 0.1554 0.0000
vt 0.4939 0.1547 0.0000
vt 0.4835 0.1879 0.0000
vt 0.4807 0.1860 0.0000
vt 0.4585 0.2126 0.0000
vt 0.4567 0.2099 0.0000
vt 0.4259 0.2260 0.0000
vt 0.4253 0.2227 0.0000
# 251 texture coords

o Cylinder001
g Cylinder001
usemtl Material__25
s 1
f 1/1/1 2/2/2 3/3/2 
f 3/3/2 4/4/1 5/5/2 
f 5/5/2 6/6/2 7/7/1 
f 3/3/2 5/5/2 7/7/1 
f 7/7/1 8/8/1 9/9/2 
f 9/9/2 10/10/1 11/11/2 
f 7/7/1 9/9/2 11/11/2 
f 11/11/2 12/12/1 13/13/2 
f 13/13/2 14/14/1 15/15/1 
f 11/11/2 13/13/2 15/15/1 
f 7/7/1 11/11/2 15/15/1 
f 3/3/2 7/7/1 15/15/1 
f 1/1/1 3/3/2 15/15/1 
f 16/16/2 1/1/1 15/15/1 
s 8
f 14/17/3 17/18/3 18/19/4 
f 18/19/4 15/20/4 14/17/3 
f 13/21/5 19/22/5 17/18/3 
f 17/18/3 14/17/3 13/21/5 
f 12/23/6 20/24/6 19/22/5 
f 19/22/5 13/21/5 12/23/6 
f 11/25/7 21/26/7 20/24/6 
f 20/24/6 12/23/6 11/25/7 
f 10/27/8 22/28/8 21/26/7 
f 21/26/7 11/25/7 10/27/8 
f 9/29/9 23/30/9 22/28/8 
f 22/28/8 10/27/8 9/29/9 
f 8/31/10 24/32/10 23/30/9 
f 23/30/9 9/29/9 8/31/10 
f 7/33/11 25/34/11 24/32/10 
f 24/32/10 8/31/10 7/33/11 
f 6/35/12 26/36/12 25/34/11 
f 25/34/11 7/33/11 6/35/12 
f 5/37/13 27/38/13 26/36/12 
f 26/36/12 6/35/12 5/37/13 
f 4/39/14 28/40/14 27/41/13 
f 27/41/13 5/42/13 4/39/14 
f 3/43/15 29/44/15 28/40/14 
f 28/40/14 4/39/14 3/43/15 
f 2/45/16 30/46/16 29/44/15 
f 29/44/15 3/43/15 2/45/16 
f 1/47/17 31/48/17 30/46/16 
f 30/46/16 2/45/16 1/47/17 
f 16/49/18 32/50/18 31/48/17 
f 31/48/17 1/47/17 16/49/18 
f 15/20/4 18/19/4 32/50/18 
f 32/50/18 16/49/18 15/20/4 
f 33/51/19 34/52/20 35/53/21 
f 35/53/21 36/54/22 33/51/19 
f 37/55/23 33/51/19 36/54/22 
f 36/54/22 38/56/24 37/55/23 
f 39/57/25 37/58/23 38/59/24 
f 38/59/24 40/60/26 39/57/25 
f 41/61/27 39/57/25 40/60/26 
f 40/60/26 42/62/28 41/61/27 
f 43/63/29 41/61/27 42/62/28 
f 42/62/28 44/64/30 43/63/29 
f 45/65/31 43/63/29 44/64/30 
f 44/64/30 46/66/32 45/65/31 
f 47/67/33 45/65/31 46/66/32 
f 46/66/32 48/68/34 47/67/33 
f 49/69/35 47/67/33 48/68/34 
f 48/68/34 50/70/36 49/69/35 
f 51/71/37 49/69/35 50/70/36 
f 50/70/36 52/72/38 51/71/37 
f 53/73/39 51/71/37 52/72/38 
f 52/72/38 54/74/40 53/73/39 
f 55/75/41 53/73/39 54/74/40 
f 54/74/40 56/76/42 55/75/41 
f 57/77/43 55/75/41 56/76/42 
f 56/76/42 58/78/44 57/77/43 
f 59/79/45 57/77/43 58/78/44 
f 58/78/44 60/80/46 59/79/45 
f 61/81/47 59/79/45 60/80/46 
f 60/80/46 62/82/48 61/81/47 
f 63/83/49 61/81/47 62/82/48 
f 62/82/48 64/84/50 63/83/49 
f 34/52/20 63/83/49 64/84/50 
f 64/84/50 35/53/21 34/52/20 
f 65/85/51 66/86/52 67/87/53 
f 67/87/53 68/88/54 65/85/51 
f 69/89/55 70/90/56 66/86/52 
f 66/86/52 65/85/51 69/89/55 
f 71/91/57 72/92/58 70/93/56 
f 70/93/56 69/94/55 71/91/57 
f 73/95/59 74/96/60 72/92/58 
f 72/92/58 71/91/57 73/95/59 
f 75/97/61 76/98/62 74/96/60 
f 74/96/60 73/95/59 75/97/61 
f 77/99/63 78/100/64 76/98/62 
f 76/98/62 75/97/61 77/99/63 
f 79/101/65 80/102/66 78/100/64 
f 78/100/64 77/99/63 79/101/65 
f 81/103/67 82/104/68 80/102/66 
f 80/102/66 79/101/65 81/103/67 
f 83/105/69 84/106/70 82/104/68 
f 82/104/68 81/103/67 83/105/69 
f 85/107/71 86/108/72 84/106/70 
f 84/106/70 83/105/69 85/107/71 
f 87/109/73 88/110/74 86/108/72 
f 86/108/72 85/107/71 87/109/73 
f 89/111/75 90/112/76 88/110/74 
f 88/110/74 87/109/73 89/111/75 
f 91/113/77 92/114/78 90/112/76 
f 90/112/76 89/111/75 91/113/77 
f 93/115/79 94/116/80 92/114/78 
f 92/114/78 91/113/77 93/115/79 
f 95/117/81 96/118/82 94/116/80 
f 94/116/80 93/115/79 95/117/81 
f 95/117/81 68/88/54 67/87/53 
f 67/87/53 96/118/82 95/117/81 
f 66/86/52 97/119/83 67/87/53 
f 70/90/56 97/119/83 66/86/52 
f 72/92/58 97/119/83 70/93/56 
f 74/96/60 97/119/83 72/92/58 
f 76/98/62 97/119/83 74/96/60 
f 78/100/64 97/119/83 76/98/62 
f 80/102/66 97/119/83 78/100/64 
f 82/104/68 97/119/83 80/102/66 
f 84/106/70 97/119/83 82/104/68 
f 86/108/72 97/119/83 84/106/70 
f 88/110/74 97/119/83 86/108/72 
f 90/112/76 97/119/83 88/110/74 
f 92/114/78 97/119/83 90/112/76 
f 94/116/80 97/119/83 92/114/78 
f 96/118/82 97/119/83 94/116/80 
f 67/87/53 97/119/83 96/118/82 
f 65/85/51 68/88/54 34/52/20 
f 34/52/20 33/51/19 65/85/51 
f 69/89/55 65/85/51 33/51/19 
f 33/51/19 37/55/23 69/89/55 
f 71/91/57 69/94/55 37/58/23 
f 37/58/23 39/57/25 71/91/57 
f 73/95/59 71/91/57 39/57/25 
f 39/57/25 41/61/27 73/95/59 
f 75/97/61 73/95/59 41/61/27 
f 41/61/27 43/63/29 75/97/61 
f 77/99/63 75/97/61 43/63/29 
f 43/63/29 45/65/31 77/99/63 
f 79/101/65 77/99/63 45/65/31 
f 45/65/31 47/67/33 79/101/65 
f 81/103/67 79/101/65 47/67/33 
f 47/67/33 49/69/35 81/103/67 
f 83/105/69 81/103/67 49/69/35 
f 49/69/35 51/71/37 83/105/69 
f 85/107/71 83/105/69 51/71/37 
f 51/71/37 53/73/39 85/107/71 
f 87/109/73 85/107/71 53/73/39 
f 53/73/39 55/75/41 87/109/73 
f 89/111/75 87/109/73 55/75/41 
f 55/75/41 57/77/43 89/111/75 
f 91/113/77 89/111/75 57/77/43 
f 57/77/43 59/79/45 91/113/77 
f 93/115/79 91/113/77 59/79/45 
f 59/79/45 61/81/47 93/115/79 
f 95/117/81 93/115/79 61/81/47 
f 61/81/47 63/83/49 95/117/81 
f 68/88/54 95/117/81 63/83/49 
f 63/83/49 34/52/20 68/88/54 
f 98/120/3 99/121/4 100/122/4 
f 100/122/4 101/123/3 98/120/3 
f 102/124/5 98/120/3 101/123/3 
f 101/123/3 103/125/5 102/124/5 
f 104/126/6 102/127/5 103/128/5 
f 103/128/5 105/129/6 104/126/6 
f 106/130/84 104/126/6 105/129/6 
f 105/129/6 107/131/84 106/130/84 
f 108/132/8 106/130/84 107/131/84 
f 107/131/84 109/133/8 108/132/8 
f 110/134/9 108/132/8 109/133/8 
f 109/133/8 111/135/9 110/134/9 
f 112/136/10 110/134/9 111/135/9 
f 111/135/9 113/137/10 112/136/10 
f 114/138/11 112/136/10 113/137/10 
f 113/137/10 115/139/11 114/138/11 
f 116/140/12 114/138/11 115/139/11 
f 115/139/11 117/141/12 116/140/12 
f 118/142/13 116/140/12 117/141/12 
f 117/141/12 119/143/13 118/142/13 
f 120/144/14 118/142/13 119/143/13 
f 119/143/13 121/145/14 120/144/14 
f 122/146/15 120/144/14 121/145/14 
f 121/145/14 123/147/15 122/146/15 
f 124/148/16 122/146/15 123/147/15 
f 123/147/15 125/149/16 124/148/16 
f 126/150/17 124/148/16 125/149/16 
f 125/149/16 127/151/17 126/150/17 
f 128/152/18 126/150/17 127/151/17 
f 127/151/17 129/153/18 128/152/18 
f 99/121/4 128/152/18 129/153/18 
f 129/153/18 100/122/4 99/121/4 
f 130/154/85 131/155/86 132/156/4 
f 132/156/4 133/157/3 130/154/85 
f 134/158/87 130/154/85 133/157/3 
f 133/157/3 135/159/5 134/158/87 
f 136/160/88 134/161/87 135/162/5 
f 135/162/5 137/163/6 136/160/88 
f 138/164/89 136/160/88 137/163/6 
f 137/163/6 139/165/84 138/164/89 
f 140/166/90 138/164/89 139/165/84 
f 139/165/84 141/167/8 140/166/90 
f 142/168/91 140/166/90 141/167/8 
f 141/167/8 143/169/9 142/168/91 
f 144/170/92 142/168/91 143/169/9 
f 143/169/9 145/171/10 144/170/92 
f 146/172/93 144/170/92 145/171/10 
f 145/171/10 147/173/11 146/172/93 
f 148/174/94 146/172/93 147/173/11 
f 147/173/11 149/175/12 148/174/94 
f 150/176/95 148/174/94 149/175/12 
f 149/175/12 151/177/13 150/176/95 
f 152/178/96 150/176/95 151/177/13 
f 151/177/13 153/179/14 152/178/96 
f 154/180/97 152/178/96 153/179/14 
f 153/179/14 155/181/15 154/180/97 
f 156/182/98 154/180/97 155/181/15 
f 155/181/15 157/183/16 156/182/98 
f 158/184/99 156/182/98 157/183/16 
f 157/183/16 159/185/17 158/184/99 
f 160/186/100 158/184/99 159/185/17 
f 159/185/17 161/187/18 160/186/100 
f 131/155/86 160/186/100 161/187/18 
f 161/187/18 132/156/4 131/155/86 
f 36/54/22 35/53/21 131/155/86 
f 131/155/86 130/154/85 36/54/22 
f 38/56/24 36/54/22 130/154/85 
f 130/154/85 134/158/87 38/56/24 
f 40/60/26 38/59/24 134/161/87 
f 134/161/87 136/160/88 40/60/26 
f 42/62/28 40/60/26 136/160/88 
f 136/160/88 138/164/89 42/62/28 
f 44/64/30 42/62/28 138/164/89 
f 138/164/89 140/166/90 44/64/30 
f 46/66/32 44/64/30 140/166/90 
f 140/166/90 142/168/91 46/66/32 
f 48/68/34 46/66/32 142/168/91 
f 142/168/91 144/170/92 48/68/34 
f 50/70/36 48/68/34 144/170/92 
f 144/170/92 146/172/93 50/70/36 
f 52/72/38 50/70/36 146/172/93 
f 146/172/93 148/174/94 52/72/38 
f 54/74/40 52/72/38 148/174/94 
f 148/174/94 150/176/95 54/74/40 
f 56/76/42 54/74/40 150/176/95 
f 150/176/95 152/178/96 56/76/42 
f 58/78/44 56/76/42 152/178/96 
f 152/178/96 154/180/97 58/78/44 
f 60/80/46 58/78/44 154/180/97 
f 154/180/97 156/182/98 60/80/46 
f 62/82/48 60/80/46 156/182/98 
f 156/182/98 158/184/99 62/82/48 
f 64/84/50 62/82/48 158/184/99 
f 158/184/99 160/186/100 64/84/50 
f 35/53/21 64/84/50 160/186/100 
f 160/186/100 131/155/86 35/53/21 
s off
f 18/188/101 17/189/101 101/190/101 
f 101/190/101 100/191/101 18/188/101 
f 17/189/102 19/192/102 103/193/102 
f 103/193/102 101/190/102 17/189/102 
f 19/192/103 20/194/103 105/195/103 
f 105/195/103 103/193/103 19/192/103 
f 20/194/104 21/196/104 107/197/104 
f 107/197/104 105/195/104 20/194/104 
f 21/196/105 22/198/105 109/199/105 
f 109/199/105 107/197/105 21/196/105 
f 22/198/106 23/200/106 111/201/106 
f 111/201/106 109/199/106 22/198/106 
f 23/200/107 24/202/107 113/203/107 
f 113/203/107 111/201/107 23/200/107 
f 24/202/108 25/204/108 115/205/108 
f 115/205/108 113/203/108 24/202/108 
f 25/204/109 26/206/109 117/207/109 
f 117/207/109 115/205/109 25/204/109 
f 26/206/110 27/208/110 119/209/110 
f 119/209/110 117/207/110 26/206/110 
f 27/208/111 28/210/111 121/211/111 
f 121/211/111 119/209/111 27/208/111 
f 28/210/112 29/212/112 123/213/112 
f 123/213/112 121/211/112 28/210/112 
f 29/212/113 30/214/113 125/215/113 
f 125/215/113 123/213/113 29/212/113 
f 30/214/114 31/216/114 127/217/114 
f 127/217/114 125/215/114 30/214/114 
f 31/216/115 32/218/115 129/219/115 
f 129/219/115 127/217/115 31/216/115 
f 32/218/116 18/188/116 100/191/116 
f 100/191/116 129/219/116 32/218/116 
f 133/220/117 132/221/117 99/222/117 
f 99/222/117 98/223/117 133/220/117 
f 132/221/118 161/224/118 128/225/118 
f 128/225/118 99/222/118 132/221/118 
f 161/224/119 159/226/119 126/227/119 
f 126/227/119 128/225/119 161/224/119 
f 159/226/120 157/228/120 124/229/120 
f 124/229/120 126/227/120 159/226/120 
f 157/228/121 155/230/121 122/231/121 
f 122/231/121 124/229/121 157/228/121 
f 155/230/122 153/232/122 120/233/122 
f 120/233/122 122/231/122 155/230/122 
f 153/232/123 151/234/123 118/235/123 
f 118/235/123 120/233/123 153/232/123 
f 151/234/124 149/236/124 116/237/124 
f 116/237/124 118/235/124 151/234/124 
f 149/236/125 147/238/125 114/239/125 
f 114/239/125 116/237/125 149/236/125 
f 147/238/126 145/240/126 112/241/126 
f 112/241/126 114/239/126 147/238/126 
f 145/240/127 143/242/127 110/243/127 
f 110/243/127 112/241/127 145/240/127 
f 143/242/128 141/244/128 108/245/128 
f 108/245/128 110/243/128 143/242/128 
f 141/244/129 139/246/129 106/247/129 
f 106/247/129 108/245/129 141/244/129 
f 139/246/130 137/248/130 104/249/130 
f 104/249/130 106/247/130 139/246/130 
f 137/248/131 135/250/131 102/251/131 
f 102/251/131 104/249/131 137/248/131 
f 135/250/132 133/220/132 98/223/132 
f 98/223/132 102/251/132 135/250/132 
# 318 faces

