# 3ds Max Wavefront OBJ Exporter v0.97b - (c)2007 guruware
# File Created: 01.04.2019 12:27:58

mtllib PlayerB__.mtl

#
# object Object005
#

v  -4.0483 -4.0562 7.5796
v  0.0000 -4.0562 7.5796
v  0.0000 -3.9831 25.6847
v  -4.2704 -3.9831 25.6847
v  0.0000 4.4682 20.8053
v  0.0000 4.5413 7.5448
v  -4.0483 4.5413 7.5448
v  -4.2704 4.4682 20.8053
v  -4.4802 0.7910 -22.1631
v  0.0000 0.7910 -22.1631
v  0.0000 -0.3059 -22.1631
v  -4.4802 -0.3059 -22.1631
v  -5.0003 -2.4850 24.8198
v  -4.7402 -2.5322 7.5734
v  -4.4802 3.0645 -22.1631
v  -4.7402 3.0173 7.5510
v  -3.8261 4.6144 -22.1631
v  0.0000 -2.5746 24.8715
v  -3.3968 -2.5746 24.8715
v  -5.0003 2.9701 21.6703
v  -3.6762 2.3867 22.0071
v  -3.3968 3.0597 21.6186
v  -3.6762 -1.9016 24.4829
v  0.0000 -2.6720 7.8558
v  -3.0434 -2.6720 7.8558
v  -3.2938 2.4608 7.8558
v  -3.0434 3.1571 7.8558
v  -3.2938 -1.9757 7.8558
v  0.0000 4.6144 -22.1631
v  -4.7402 0.7818 7.5600
v  -5.0003 0.7727 22.9390
v  -4.4802 -2.5794 -22.1631
v  -4.7402 -0.2967 7.5644
v  -5.0003 -0.2876 23.5511
v  -3.6762 -0.1742 23.4856
v  -3.6762 0.6593 23.0044
v  -3.2938 -0.1886 7.8558
v  -3.2938 0.6737 7.8558
v  0.0000 -0.1886 7.8558
v  -3.8261 -4.1293 -22.1631
v  0.0000 -4.1293 -22.1631
v  -7.1111 -6.8545 -4.1235
v  0.0000 -6.8545 -4.1235
v  0.0000 -6.8545 4.7759
v  -7.1111 -6.8545 4.7759
v  -7.1111 1.9616 -4.1235
v  -7.1111 1.9616 -25.6847
v  -7.1111 -6.8545 -25.6847
v  0.0000 -6.8545 -25.6847
v  -7.1111 1.9616 2.4616
v  -7.1111 5.4310 -25.6847
v  0.0000 5.4310 -25.6847
v  0.0000 1.9616 -25.6847
v  -7.1111 5.4310 -4.1235
v  0.0000 -5.7334 4.7759
v  -6.0936 -5.7334 4.7759
v  -6.0936 1.8212 2.4616
v  -6.0936 1.8212 -4.1235
v  -6.0936 6.0141 -4.1235
v  0.0000 -5.7334 -20.2897
v  -6.0936 -5.7334 -20.2897
v  -6.0936 1.8212 -20.2942
v  -6.0936 6.0141 -20.2975
v  -5.6876 6.8545 -4.1235
v  -5.6876 6.8545 -24.2612
v  0.0000 3.0597 21.6186
v  0.0000 3.1571 7.8558
v  0.0000 0.6737 7.8558
v  0.0000 6.8545 -4.1235
v  0.0000 6.8545 -24.2612
v  0.0000 6.0141 -4.1235
v  0.0000 6.0141 -20.2975
v  4.0483 -4.0562 7.5796
v  4.2704 -3.9831 25.6847
v  4.2704 4.4682 20.8053
v  4.0483 4.5413 7.5448
v  4.4802 0.7910 -22.1631
v  4.4802 -0.3059 -22.1631
v  5.0003 -2.4850 24.8198
v  4.7402 -2.5322 7.5734
v  4.4802 3.0645 -22.1631
v  3.8261 4.6144 -22.1631
v  4.7402 3.0173 7.5510
v  3.3968 -2.5746 24.8715
v  3.3968 3.0597 21.6186
v  3.6762 2.3867 22.0071
v  5.0003 2.9701 21.6703
v  3.6762 -1.9016 24.4829
v  3.0434 -2.6720 7.8558
v  3.0434 3.1571 7.8558
v  3.2938 2.4608 7.8558
v  3.2938 -1.9757 7.8558
v  5.0003 0.7727 22.9390
v  4.7402 0.7818 7.5600
v  4.4802 -2.5794 -22.1631
v  4.7402 -0.2967 7.5644
v  5.0003 -0.2876 23.5511
v  3.6762 -0.1742 23.4856
v  3.6762 0.6593 23.0044
v  3.2938 -0.1886 7.8558
v  3.2938 0.6737 7.8558
v  3.8261 -4.1293 -22.1631
v  7.1111 -6.8545 -4.1235
v  7.1111 -6.8545 4.7759
v  7.1111 -6.8545 -25.6847
v  7.1111 1.9616 -25.6847
v  7.1111 1.9616 -4.1235
v  7.1111 1.9616 2.4616
v  7.1111 5.4310 -25.6847
v  7.1111 5.4310 -4.1235
v  6.0936 -5.7334 4.7759
v  6.0936 1.8212 2.4616
v  6.0936 6.0141 -4.1235
v  6.0936 1.8212 -4.1235
v  6.0936 -5.7334 -20.2897
v  6.0936 1.8212 -20.2942
v  6.0936 6.0141 -20.2975
v  5.6876 6.8545 -4.1235
v  5.6876 6.8545 -24.2612
# 119 vertices

vn 0.0000 -1.0000 0.0033
vn 0.0000 -1.0000 0.0032
vn 0.0000 -1.0000 0.0040
vn 0.0000 1.0000 0.0055
vn 0.0000 1.0000 0.0040
vn 0.0000 0.0000 -1.0000
vn -0.6782 -0.7347 -0.0158
vn -0.7066 -0.7074 -0.0159
vn -0.7049 -0.7092 -0.0154
vn -0.6763 -0.7365 -0.0153
vn -0.7304 0.6829 -0.0105
vn -0.7052 0.7088 -0.0176
vn -0.7067 0.7073 -0.0172
vn -0.7316 0.6817 -0.0104
vn 0.0000 0.5000 0.8660
vn -0.0000 0.5000 0.8660
vn 0.0000 1.0000 -0.0057
vn 0.7493 -0.6609 0.0411
vn 0.9732 -0.2230 0.0569
vn 0.9413 -0.3337 0.0507
vn 0.7825 -0.6213 0.0400
vn 0.8760 0.4806 0.0405
vn 0.7282 0.6847 0.0295
vn 0.7807 0.6238 0.0367
vn 0.9417 0.3331 0.0463
vn -0.9991 -0.0199 -0.0376
vn -0.9996 -0.0001 -0.0299
vn -0.9997 -0.0008 -0.0263
vn -0.9991 -0.0215 -0.0373
vn -0.9998 -0.0000 -0.0193
vn -0.9996 -0.0009 -0.0275
vn -0.9997 -0.0001 -0.0248
vn 0.9987 0.0020 0.0509
vn 0.9981 0.0311 0.0539
vn 0.9978 0.0306 0.0593
vn 0.9984 0.0000 0.0557
vn 0.0000 0.0000 1.0000
vn -0.0307 0.0000 0.9995
vn 0.0000 -1.0000 0.0025
vn -0.7316 -0.6817 -0.0130
vn -0.7304 -0.6829 -0.0129
vn -0.6879 0.7254 -0.0256
vn -0.6894 0.7239 -0.0253
vn -0.9998 0.0000 -0.0193
vn -0.9993 -0.0192 -0.0332
vn -0.9993 -0.0179 -0.0334
vn -0.0919 0.0033 0.9958
vn -0.0308 0.0003 0.9995
vn -0.0921 0.0040 0.9957
vn -0.0343 -0.9994 -0.0020
vn -0.0387 -0.9992 -0.0031
vn -0.0380 -0.9993 -0.0029
vn -0.0337 -0.9994 -0.0019
vn -0.0343 0.9994 -0.0019
vn -0.0337 0.9994 -0.0018
vn -0.0381 0.9993 -0.0029
vn -0.0388 0.9992 -0.0030
vn 0.0000 -1.0000 -0.0000
vn -1.0000 0.0000 -0.0000
vn -0.0461 0.1117 0.9927
vn -0.0898 0.1799 0.9796
vn -0.0079 0.2859 0.9582
vn 0.0183 0.2929 0.9560
vn 0.0623 0.9981 -0.0000
vn 0.0000 1.0000 -0.0000
vn 1.0000 0.0000 -0.0000
vn -0.4125 0.9109 -0.0000
vn 0.0000 -1.0000 -0.0071
vn 0.0000 1.0000 0.0025
vn -0.0000 0.0007 1.0000
vn 0.0000 0.0008 1.0000
vn 0.0000 0.0007 1.0000
vn 0.0000 0.0006 1.0000
vn -0.0000 0.7071 -0.7071
vn 0.0000 0.7071 -0.7071
vn 0.6782 -0.7347 -0.0158
vn 0.6763 -0.7365 -0.0153
vn 0.7049 -0.7092 -0.0154
vn 0.7066 -0.7074 -0.0159
vn 0.7304 0.6829 -0.0105
vn 0.7316 0.6817 -0.0104
vn 0.7067 0.7073 -0.0172
vn 0.7052 0.7088 -0.0176
vn -0.7493 -0.6609 0.0411
vn -0.7825 -0.6213 0.0400
vn -0.9413 -0.3337 0.0507
vn -0.9732 -0.2230 0.0569
vn -0.8760 0.4806 0.0405
vn -0.9417 0.3331 0.0463
vn -0.7807 0.6238 0.0367
vn -0.7282 0.6847 0.0295
vn 0.9991 -0.0199 -0.0376
vn 0.9991 -0.0215 -0.0373
vn 0.9997 -0.0008 -0.0263
vn 0.9996 -0.0001 -0.0299
vn 0.9998 -0.0000 -0.0193
vn 0.9997 -0.0001 -0.0248
vn 0.9996 -0.0009 -0.0275
vn -0.9981 0.0311 0.0539
vn -0.9987 0.0020 0.0509
vn -0.9984 0.0000 0.0557
vn -0.9978 0.0306 0.0593
vn 0.0307 0.0000 0.9995
vn 0.7304 -0.6829 -0.0129
vn 0.7316 -0.6817 -0.0130
vn 0.6894 0.7239 -0.0253
vn 0.6879 0.7254 -0.0256
vn 0.9998 0.0000 -0.0193
vn 0.9993 -0.0179 -0.0334
vn 0.9993 -0.0192 -0.0332
vn 0.0919 0.0033 0.9958
vn 0.0921 0.0040 0.9957
vn 0.0308 0.0003 0.9995
vn 0.0343 -0.9994 -0.0020
vn 0.0337 -0.9994 -0.0019
vn 0.0380 -0.9993 -0.0029
vn 0.0387 -0.9992 -0.0031
vn 0.0343 0.9994 -0.0019
vn 0.0388 0.9992 -0.0030
vn 0.0381 0.9993 -0.0029
vn 0.0337 0.9994 -0.0018
vn 0.0898 0.1799 0.9796
vn 0.0461 0.1117 0.9927
vn 0.0079 0.2859 0.9582
vn -0.0183 0.2929 0.9560
vn -0.0623 0.9981 -0.0000
vn 0.4125 0.9109 -0.0000
vn -0.0000 0.0006 1.0000
# 128 vertex normals

vt 0.5787 0.3677 0.0000
vt 0.5583 0.3677 0.0000
vt 0.5583 0.3264 0.0000
vt 0.5798 0.3264 0.0000
vt 0.3522 0.3386 0.0000
vt 0.3522 0.3083 0.0000
vt 0.3725 0.3083 0.0000
vt 0.3737 0.3386 0.0000
vt 0.7687 0.4548 0.0000
vt 0.7687 0.4323 0.0000
vt 0.7712 0.4323 0.0000
vt 0.7712 0.4548 0.0000
vt 0.5835 0.3283 0.0000
vt 0.5822 0.3677 0.0000
vt 0.4234 0.6907 0.0000
vt 0.4233 0.6229 0.0000
vt 0.4268 0.6230 0.0000
vt 0.4269 0.6907 0.0000
vt 0.9440 0.7468 0.0000
vt 0.9408 0.7468 0.0000
vt 0.9408 0.7297 0.0000
vt 0.9440 0.7253 0.0000
vt 0.2318 0.0641 0.0000
vt 0.2355 0.0675 0.0000
vt 0.2288 0.0689 0.0000
vt 0.2274 0.0673 0.0000
vt 0.9406 0.7216 0.0000
vt 0.9392 0.7283 0.0000
vt 0.8952 0.8253 0.0000
vt 0.9341 0.8253 0.0000
vt 0.9341 0.8406 0.0000
vt 0.8952 0.8424 0.0000
vt 0.2286 0.2259 0.0000
vt 0.2277 0.2244 0.0000
vt 0.2600 0.2246 0.0000
vt 0.2600 0.2262 0.0000
vt 0.9209 0.8971 0.0000
vt 0.9224 0.8962 0.0000
vt 0.9227 0.9350 0.0000
vt 0.9211 0.9350 0.0000
vt 0.7600 0.4515 0.0000
vt 0.7600 0.4323 0.0000
vt 0.7635 0.4548 0.0000
vt 0.4232 0.5907 0.0000
vt 0.4182 0.6229 0.0000
vt 0.4182 0.5879 0.0000
vt 0.4105 0.6907 0.0000
vt 0.4106 0.6229 0.0000
vt 0.4157 0.6229 0.0000
vt 0.4157 0.6907 0.0000
vt 0.9356 0.7216 0.0000
vt 0.9353 0.7283 0.0000
vt 0.2355 0.0725 0.0000
vt 0.2288 0.0728 0.0000
vt 0.9170 0.9350 0.0000
vt 0.9170 0.8994 0.0000
vt 0.2254 0.2205 0.0000
vt 0.2600 0.2205 0.0000
vt 0.8782 0.9106 0.0000
vt 0.8782 0.9259 0.0000
vt 0.8726 0.9259 0.0000
vt 0.8766 0.9093 0.0000
vt 0.8726 0.9093 0.0000
vt 0.5776 0.4355 0.0000
vt 0.5583 0.4355 0.0000
vt 0.4182 0.6907 0.0000
vt 0.4070 0.6907 0.0000
vt 0.4072 0.6229 0.0000
vt 0.3760 0.3084 0.0000
vt 0.3773 0.3406 0.0000
vt 0.4107 0.5836 0.0000
vt 0.4157 0.5865 0.0000
vt 0.8728 0.9020 0.0000
vt 0.8706 0.9093 0.0000
vt 0.8703 0.9020 0.0000
vt 0.1430 0.9010 0.0000
vt 0.1776 0.9029 0.0000
vt 0.1774 0.9096 0.0000
vt 0.1424 0.9082 0.0000
vt 0.0587 0.6451 0.0000
vt 0.0514 0.6455 0.0000
vt 0.0513 0.6090 0.0000
vt 0.0580 0.6094 0.0000
vt 0.2254 0.8445 0.0000
vt 0.2612 0.8445 0.0000
vt 0.2612 0.8648 0.0000
vt 0.2254 0.8648 0.0000
vt 0.2658 0.8157 0.0000
vt 0.2859 0.8157 0.0000
vt 0.2859 0.8648 0.0000
vt 0.2658 0.8648 0.0000
vt 0.2254 0.7954 0.0000
vt 0.2612 0.7954 0.0000
vt 0.2658 0.7954 0.0000
vt 0.2859 0.8007 0.0000
vt 0.8261 0.6923 0.0000
vt 0.7903 0.6923 0.0000
vt 0.7903 0.6844 0.0000
vt 0.8261 0.6844 0.0000
vt 0.2938 0.8157 0.0000
vt 0.2938 0.8648 0.0000
vt 0.8815 0.9320 0.0000
vt 0.8790 0.9320 0.0000
vt 0.8790 0.9014 0.0000
vt 0.8815 0.8962 0.0000
vt 0.8614 0.8962 0.0000
vt 0.8617 0.9014 0.0000
vt 0.5877 0.9573 0.0000
vt 0.5877 0.9494 0.0000
vt 0.5928 0.9491 0.0000
vt 0.5928 0.9586 0.0000
vt 0.9014 0.9353 0.0000
vt 0.9165 0.9353 0.0000
vt 0.9165 0.9404 0.0000
vt 0.9014 0.9404 0.0000
vt 0.7163 0.6949 0.0000
vt 0.6591 0.6949 0.0000
vt 0.6591 0.6643 0.0000
vt 0.7163 0.6643 0.0000
vt 0.7502 0.8832 0.0000
vt 0.7449 0.8660 0.0000
vt 0.8020 0.8660 0.0000
vt 0.8021 0.8832 0.0000
vt 0.7652 0.8928 0.0000
vt 0.7652 0.8832 0.0000
vt 0.8021 0.8928 0.0000
vt 0.5948 0.9605 0.0000
vt 0.7555 0.8341 0.0000
vt 0.7587 0.8413 0.0000
vt 0.7096 0.8413 0.0000
vt 0.7096 0.8341 0.0000
vt 0.2103 0.0641 0.0000
vt 0.2103 0.0673 0.0000
vt 0.1599 0.7822 0.0000
vt 0.1599 0.7651 0.0000
vt 0.1913 0.7669 0.0000
vt 0.1913 0.7822 0.0000
vt 0.8706 0.9259 0.0000
vt 0.7799 0.4515 0.0000
vt 0.7764 0.4548 0.0000
vt 0.7799 0.4323 0.0000
vt 0.8649 0.9106 0.0000
vt 0.8665 0.9093 0.0000
vt 0.8649 0.9259 0.0000
vt 0.3714 0.2406 0.0000
vt 0.3522 0.2406 0.0000
vt 0.8261 0.6643 0.0000
vt 0.7903 0.6643 0.0000
vt 0.7096 0.8055 0.0000
vt 0.7555 0.8055 0.0000
vt 0.6235 0.9586 0.0000
vt 0.6235 0.9605 0.0000
vt 0.8322 0.6596 0.0000
vt 0.7953 0.6596 0.0000
vt 0.7953 0.6290 0.0000
vt 0.8322 0.6290 0.0000
vt 0.6898 0.8020 0.0000
vt 0.6591 0.8020 0.0000
vt 0.6591 0.7924 0.0000
vt 0.6591 0.7752 0.0000
vt 0.6898 0.7752 0.0000
vt 0.8189 0.6955 0.0000
vt 0.7903 0.6955 0.0000
# 163 texture coords

o Object005
g Object005
usemtl Material__311
f 1/1/1 2/2/2 3/3/3 
f 3/3/3 4/4/3 1/1/1 
f 5/5/4 6/6/5 7/7/5 
f 7/7/5 8/8/4 5/5/4 
f 9/9/6 10/10/6 11/11/6 
f 11/11/6 12/12/6 9/9/6 
f 13/13/7 14/14/8 1/1/9 
f 1/1/9 4/4/10 13/13/7 
f 15/15/11 16/16/12 7/17/13 
f 7/17/13 17/18/14 15/15/11 
f 3/19/15 18/20/15 19/21/15 
f 19/21/15 4/22/15 3/19/15 
f 8/23/15 20/24/16 21/25/15 
f 21/25/15 22/26/15 8/23/15 
f 13/27/16 4/22/16 19/21/16 
f 19/21/16 23/28/16 13/27/16 
f 18/29/17 24/30/17 25/31/17 
f 25/31/17 19/32/17 18/29/17 
f 22/33/18 21/34/19 26/35/20 
f 26/35/20 27/36/21 22/33/18 
f 23/37/22 19/38/23 25/39/24 
f 25/39/24 28/40/25 23/37/22 
f 17/41/6 29/42/6 10/10/6 
f 15/43/6 17/41/6 10/10/6 
f 9/9/6 15/43/6 10/10/6 
f 20/44/26 16/16/27 30/45/28 
f 30/45/28 31/46/29 20/44/26 
f 32/47/30 14/48/31 33/49/32 
f 33/49/32 12/50/30 32/47/30 
f 34/51/15 13/27/16 23/28/16 
f 23/28/16 35/52/15 34/51/15 
f 21/25/15 20/24/16 31/53/15 
f 31/53/15 36/54/15 21/25/15 
f 23/37/22 28/40/25 37/55/33 
f 37/55/33 35/56/34 23/37/22 
f 26/35/20 21/34/19 36/57/35 
f 36/57/35 38/58/36 26/35/20 
f 25/59/37 24/60/37 39/61/37 
f 28/62/37 25/59/37 39/61/37 
f 37/63/38 28/62/37 39/61/37 
f 40/64/39 41/65/39 2/2/2 
f 2/2/2 1/1/1 40/64/39 
f 30/45/28 9/66/30 12/50/30 
f 12/50/30 33/49/32 30/45/28 
f 14/48/8 32/47/40 40/67/41 
f 40/67/41 1/68/9 14/48/8 
f 16/69/12 20/70/42 8/8/43 
f 8/8/43 7/7/13 16/69/12 
f 16/16/27 15/15/44 9/66/30 
f 9/66/30 30/45/28 16/16/27 
f 14/48/31 13/71/45 34/72/46 
f 34/72/46 33/49/32 14/48/31 
f 33/73/47 37/63/38 38/74/48 
f 38/74/48 30/75/49 33/73/47 
f 38/76/50 36/77/51 31/78/52 
f 31/78/52 30/79/53 38/76/50 
f 37/80/54 33/81/55 34/82/56 
f 34/82/56 35/83/57 37/80/54 
f 42/84/58 43/85/58 44/86/58 
f 44/86/58 45/87/58 42/84/58 
f 42/88/59 46/89/59 47/90/59 
f 47/90/59 48/91/59 42/88/59 
f 48/92/58 49/93/58 43/85/58 
f 43/85/58 42/84/58 48/92/58 
f 45/94/59 50/95/59 46/89/59 
f 46/89/59 42/88/59 45/94/59 
f 51/96/6 52/97/6 53/98/6 
f 53/98/6 47/99/6 51/96/6 
f 54/100/59 51/101/59 47/90/59 
f 47/90/59 46/89/59 54/100/59 
f 44/102/37 55/103/37 56/104/60 
f 56/104/60 45/105/61 44/102/37 
f 50/106/62 45/105/61 56/104/60 
f 56/104/60 57/107/63 50/106/62 
f 54/108/37 46/109/37 58/110/37 
f 58/110/37 59/111/37 54/108/37 
f 46/112/64 50/113/64 57/114/64 
f 57/114/64 58/115/64 46/112/64 
f 55/116/65 60/117/65 61/118/65 
f 61/118/65 56/119/65 55/116/65 
f 57/120/66 56/121/66 61/122/66 
f 61/122/66 62/123/66 57/120/66 
f 59/124/66 58/125/66 62/123/66 
f 62/123/66 63/126/66 59/124/66 
f 58/125/66 57/120/66 62/123/66 
f 54/108/37 59/111/37 64/127/37 
f 65/128/67 51/129/67 54/130/67 
f 54/130/67 64/131/67 65/128/67 
f 5/132/15 8/23/15 22/26/15 
f 22/26/15 66/133/15 5/132/15 
f 66/134/68 22/135/68 27/136/68 
f 27/136/68 67/137/68 66/134/68 
f 38/74/48 37/63/38 39/61/37 
f 39/61/37 68/138/37 38/74/48 
f 40/139/6 32/140/6 12/12/6 
f 40/139/6 12/12/6 11/11/6 
f 41/141/6 40/139/6 11/11/6 
f 27/142/37 26/143/37 38/74/48 
f 27/142/37 38/74/48 68/138/37 
f 67/144/37 27/142/37 68/138/37 
f 17/145/69 7/7/5 6/6/5 
f 6/6/5 29/146/69 17/145/69 
f 48/147/6 47/99/6 53/98/6 
f 53/98/6 49/148/6 48/147/6 
f 65/128/65 64/131/65 69/149/65 
f 69/149/65 70/150/65 65/128/65 
f 64/127/37 59/111/37 71/151/37 
f 71/151/37 69/152/37 64/127/37 
f 59/153/58 63/154/58 72/155/58 
f 72/155/58 71/156/58 59/153/58 
f 72/157/70 63/158/71 62/159/72 
f 72/157/70 62/159/72 61/160/73 
f 72/157/70 61/160/73 60/161/72 
f 52/97/74 51/96/75 65/162/74 
f 65/162/74 70/163/74 52/97/74 
f 73/1/1 74/4/3 3/3/3 
f 3/3/3 2/2/2 73/1/1 
f 5/5/4 75/8/4 76/7/5 
f 76/7/5 6/6/5 5/5/4 
f 77/9/6 78/12/6 11/11/6 
f 11/11/6 10/10/6 77/9/6 
f 79/13/76 74/4/77 73/1/78 
f 73/1/78 80/14/79 79/13/76 
f 81/15/80 82/18/81 76/17/82 
f 76/17/82 83/16/83 81/15/80 
f 3/19/15 74/22/15 84/21/15 
f 84/21/15 18/20/15 3/19/15 
f 75/23/16 85/26/16 86/25/16 
f 86/25/16 87/24/15 75/23/16 
f 79/27/15 88/28/15 84/21/15 
f 84/21/15 74/22/15 79/27/15 
f 18/29/17 84/32/17 89/31/17 
f 89/31/17 24/30/17 18/29/17 
f 85/33/84 90/36/85 91/35/86 
f 91/35/86 86/34/87 85/33/84 
f 88/37/88 92/40/89 89/39/90 
f 89/39/90 84/38/91 88/37/88 
f 10/10/6 29/42/6 82/41/6 
f 10/10/6 82/41/6 81/43/6 
f 77/9/6 10/10/6 81/43/6 
f 87/44/92 93/46/93 94/45/94 
f 94/45/94 83/16/95 87/44/92 
f 95/47/96 78/50/96 96/49/97 
f 96/49/97 80/48/98 95/47/96 
f 97/51/16 98/52/16 88/28/15 
f 88/28/15 79/27/15 97/51/16 
f 86/25/16 99/54/16 93/53/16 
f 93/53/16 87/24/15 86/25/16 
f 88/37/88 98/56/99 100/55/100 
f 100/55/100 92/40/89 88/37/88 
f 91/35/86 101/58/101 99/57/102 
f 99/57/102 86/34/87 91/35/86 
f 39/61/37 24/60/37 89/59/37 
f 39/61/37 89/59/37 92/62/37 
f 100/63/103 39/61/37 92/62/37 
f 102/64/39 73/1/1 2/2/2 
f 2/2/2 41/65/39 102/64/39 
f 94/45/94 96/49/97 78/50/96 
f 78/50/96 77/66/96 94/45/94 
f 80/48/79 73/68/78 102/67/104 
f 102/67/104 95/47/105 80/48/79 
f 83/69/83 76/7/82 75/8/106 
f 75/8/106 87/70/107 83/69/83 
f 83/16/95 94/45/94 77/66/96 
f 77/66/96 81/15/108 83/16/95 
f 80/48/98 96/49/97 97/72/109 
f 97/72/109 79/71/110 80/48/98 
f 96/73/111 94/75/112 101/74/113 
f 101/74/113 100/63/103 96/73/111 
f 101/76/114 94/79/115 93/78/116 
f 93/78/116 99/77/117 101/76/114 
f 100/80/118 98/83/119 97/82/120 
f 97/82/120 96/81/121 100/80/118 
f 103/84/58 104/87/58 44/86/58 
f 44/86/58 43/85/58 103/84/58 
f 103/88/66 105/91/66 106/90/66 
f 106/90/66 107/89/66 103/88/66 
f 105/92/58 103/84/58 43/85/58 
f 43/85/58 49/93/58 105/92/58 
f 104/94/66 103/88/66 107/89/66 
f 107/89/66 108/95/66 104/94/66 
f 109/96/6 106/99/6 53/98/6 
f 53/98/6 52/97/6 109/96/6 
f 110/100/66 107/89/66 106/90/66 
f 106/90/66 109/101/66 110/100/66 
f 44/102/37 104/105/122 111/104/123 
f 111/104/123 55/103/37 44/102/37 
f 108/106/124 112/107/125 111/104/123 
f 111/104/123 104/105/122 108/106/124 
f 110/108/37 113/111/37 114/110/37 
f 114/110/37 107/109/37 110/108/37 
f 107/112/126 114/115/126 112/114/126 
f 112/114/126 108/113/126 107/112/126 
f 55/116/65 111/119/65 115/118/65 
f 115/118/65 60/117/65 55/116/65 
f 112/120/59 116/123/59 115/122/59 
f 115/122/59 111/121/59 112/120/59 
f 113/124/59 117/126/59 116/123/59 
f 116/123/59 114/125/59 113/124/59 
f 114/125/66 116/123/66 112/120/66 
f 110/108/37 118/127/37 113/111/37 
f 119/128/127 118/131/127 110/130/127 
f 110/130/127 109/129/127 119/128/127 
f 5/132/15 66/133/15 85/26/15 
f 85/26/15 75/23/15 5/132/15 
f 66/134/68 67/137/68 90/136/68 
f 90/136/68 85/135/68 66/134/68 
f 101/74/113 68/138/37 39/61/37 
f 39/61/37 100/63/103 101/74/113 
f 78/12/6 95/140/6 102/139/6 
f 11/11/6 78/12/6 102/139/6 
f 41/141/6 11/11/6 102/139/6 
f 101/74/113 91/143/37 90/142/37 
f 68/138/37 101/74/113 90/142/37 
f 67/144/37 68/138/37 90/142/37 
f 82/145/69 29/146/69 6/6/5 
f 6/6/5 76/7/5 82/145/69 
f 105/147/6 49/148/6 53/98/6 
f 53/98/6 106/99/6 105/147/6 
f 119/128/65 70/150/65 69/149/65 
f 69/149/65 118/131/65 119/128/65 
f 118/127/37 69/152/37 71/151/37 
f 71/151/37 113/111/37 118/127/37 
f 113/153/58 71/156/58 72/155/58 
f 72/155/58 117/154/58 113/153/58 
f 72/157/70 60/161/72 115/160/128 
f 72/157/70 115/160/128 116/159/70 
f 72/157/70 116/159/70 117/158/71 
f 52/97/74 70/163/74 119/162/75 
f 119/162/75 109/96/75 52/97/74 
# 230 faces

