# 3ds Max Wavefront OBJ Exporter v0.97b - (c)2007 guruware
# File Created: 26.03.2019 09:26:44

mtllib BulletB.mtl

#
# object Cylinder001
#

v  7.1900 -7.0936 -26.5419
v  3.9320 -9.2705 -26.5419
v  0.0890 -10.0350 -26.5419
v  -3.7541 -9.2705 -26.5419
v  -7.0120 -7.0936 -26.5419
v  -9.1889 -3.8357 -26.5419
v  -9.9534 0.0074 -26.5419
v  -9.1889 3.8504 -26.5419
v  -7.0120 7.1084 -26.5419
v  -3.7541 9.2853 -26.5419
v  0.0890 10.0497 -26.5419
v  3.9320 9.2853 -26.5419
v  7.1900 7.1084 -26.5419
v  9.3669 3.8504 -26.5419
v  10.1313 0.0074 -26.5419
v  9.3669 -3.8357 -26.5419
v  9.3669 3.8504 -20.7910
v  10.1313 0.0074 -20.7910
v  7.1900 7.1084 -20.7910
v  3.9320 9.2853 -20.7910
v  0.0890 10.0497 -20.7910
v  -3.7541 9.2853 -20.7910
v  -7.0120 7.1084 -20.7910
v  -9.1889 3.8504 -20.7910
v  -9.9534 0.0074 -20.7910
v  -9.1889 -3.8357 -20.7910
v  -7.0120 -7.0936 -20.7910
v  -3.7541 -9.2705 -20.7910
v  0.0890 -10.0350 -20.7910
v  3.9320 -9.2705 -20.7910
v  7.1900 -7.0936 -20.7910
v  9.3669 -3.8357 -20.7910
v  8.4674 3.4778 53.0320
v  9.1577 0.0074 53.0320
v  10.1313 0.0074 44.5321
v  9.3669 3.8504 44.5321
v  6.5016 6.4199 53.0320
v  7.1900 7.1084 44.5321
v  3.5594 8.3858 53.0320
v  3.9320 9.2853 44.5321
v  0.0890 9.0761 53.0320
v  0.0890 10.0497 44.5321
v  -3.3815 8.3858 53.0320
v  -3.7541 9.2853 44.5321
v  -6.3236 6.4199 53.0320
v  -7.0120 7.1084 44.5321
v  -8.2895 3.4778 53.0320
v  -9.1889 3.8504 44.5321
v  -8.9798 0.0074 53.0320
v  -9.9534 0.0074 44.5321
v  -8.2895 -3.4631 53.0320
v  -9.1889 -3.8357 44.5321
v  -6.3236 -6.4052 53.0320
v  -7.0120 -7.0936 44.5321
v  -3.3815 -8.3711 53.0320
v  -3.7541 -9.2705 44.5321
v  0.0890 -9.0614 53.0320
v  0.0890 -10.0350 44.5321
v  3.5594 -8.3711 53.0320
v  3.9320 -9.2705 44.5321
v  6.5016 -6.4052 53.0320
v  7.1900 -7.0936 44.5321
v  8.4674 -3.4631 53.0320
v  9.3669 -3.8357 44.5321
v  6.8775 2.8193 61.5318
v  4.1040 1.6704 70.0316
v  4.4348 0.0074 70.0316
v  7.4369 0.0074 61.5318
v  5.2847 5.2031 61.5318
v  3.1620 3.0803 70.0316
v  2.9009 6.7959 61.5318
v  1.7521 4.0224 70.0316
v  0.0890 7.3552 61.5318
v  0.0890 4.3532 70.0316
v  -2.7229 6.7959 61.5318
v  -1.5741 4.0224 70.0316
v  -5.1068 5.2031 61.5318
v  -2.9840 3.0803 70.0316
v  -6.6996 2.8193 61.5318
v  -3.9261 1.6704 70.0316
v  -7.2589 0.0074 61.5318
v  -4.2569 0.0074 70.0316
v  -6.6996 -2.8046 61.5318
v  -3.9261 -1.6557 70.0316
v  -5.1068 -5.1884 61.5318
v  -2.9840 -3.0656 70.0316
v  -2.7229 -6.7812 61.5318
v  -1.5741 -4.0077 70.0316
v  0.0890 -7.3405 61.5318
v  0.0890 -4.3385 70.0316
v  2.9009 -6.7812 61.5318
v  1.7521 -4.0077 70.0316
v  5.2847 -5.1884 61.5318
v  3.1620 -3.0656 70.0316
v  6.8775 -2.8046 61.5318
v  4.1040 -1.6557 70.0316
v  0.0890 0.0074 76.6616
v  9.3669 3.8504 7.6591
v  10.1313 0.0074 7.6591
v  7.1900 7.1084 7.6591
v  9.2883 15.3782 -12.3031
v  10.7694 14.3886 -12.3031
v  10.7694 14.3886 -25.2368
v  9.2883 15.3782 -25.2368
v  0.0890 10.0497 7.6591
v  3.9320 9.2853 7.6591
v  -3.7541 9.2853 7.6591
v  -7.0120 7.1084 7.6591
v  -9.1889 3.8504 7.6591
v  -17.6322 2.6242 -12.3031
v  -17.2847 4.3713 -12.3031
v  -17.2847 4.3713 -25.2368
v  -17.6322 2.6242 -25.2368
v  -9.1889 -3.8357 7.6591
v  -9.9534 0.0074 7.6591
v  -7.0120 -7.0936 7.6591
v  -3.7541 -9.2705 7.6591
v  0.0890 -10.0350 7.6591
v  4.4529 -17.3663 -12.3031
v  2.7059 -17.7139 -12.3031
v  2.7059 -17.7139 -25.2368
v  4.4529 -17.3663 -25.2368
v  7.1900 -7.0936 7.6591
v  3.9320 -9.2705 7.6591
v  9.3669 -3.8357 7.6591
# 125 vertices

vn 0.0000 0.0000 -1.0000
vn 0.9239 0.3827 0.0000
vn 1.0000 0.0000 0.0000
vn 0.7071 0.7071 0.0000
vn 0.7523 0.6588 0.0000
vn 0.3827 0.9239 0.0000
vn 0.3207 0.9472 0.0000
vn -0.0000 1.0000 0.0000
vn 0.0000 1.0000 0.0000
vn -0.3827 0.9239 0.0000
vn -0.7071 0.7071 0.0000
vn -0.9239 0.3827 0.0000
vn -0.8965 0.4430 0.0000
vn -1.0000 0.0000 0.0000
vn -0.9978 -0.0662 -0.0000
vn -0.9239 -0.3827 -0.0000
vn -0.7071 -0.7071 -0.0000
vn -0.3827 -0.9239 -0.0000
vn 0.0000 -1.0000 -0.0000
vn -0.0662 -0.9978 -0.0000
vn 0.3827 -0.9239 -0.0000
vn 0.4430 -0.8965 -0.0000
vn 0.7071 -0.7071 -0.0000
vn 0.9239 -0.3827 -0.0000
vn 0.9126 0.3780 0.1554
vn 0.9878 0.0000 0.1554
vn 0.9984 0.0000 0.0566
vn 0.9224 0.3821 0.0566
vn 0.6985 0.6985 0.1554
vn 0.7060 0.7060 0.0566
vn 0.3780 0.9126 0.1554
vn 0.3821 0.9224 0.0566
vn 0.0000 0.9878 0.1554
vn 0.0000 0.9984 0.0566
vn -0.3780 0.9126 0.1554
vn -0.3821 0.9224 0.0566
vn -0.6985 0.6985 0.1554
vn -0.7060 0.7060 0.0566
vn -0.9126 0.3780 0.1554
vn -0.9224 0.3821 0.0566
vn -0.9878 0.0000 0.1554
vn -0.9984 0.0000 0.0566
vn -0.9126 -0.3780 0.1554
vn -0.9224 -0.3821 0.0566
vn -0.6985 -0.6985 0.1554
vn -0.7060 -0.7060 0.0566
vn -0.3780 -0.9126 0.1554
vn -0.3821 -0.9224 0.0566
vn 0.0000 -0.9878 0.1554
vn 0.0000 -0.9984 0.0566
vn 0.3780 -0.9126 0.1554
vn 0.3821 -0.9224 0.0566
vn 0.6985 -0.6985 0.1554
vn 0.7060 -0.7060 0.0566
vn 0.9126 -0.3780 0.1554
vn 0.9224 -0.3821 0.0566
vn 0.8911 0.3691 0.2642
vn 0.8305 0.3440 0.4380
vn 0.8990 -0.0000 0.4380
vn 0.9645 0.0000 0.2642
vn 0.6820 0.6820 0.2642
vn 0.6357 0.6357 0.4380
vn 0.3691 0.8911 0.2642
vn 0.3440 0.8305 0.4380
vn 0.0000 0.9645 0.2642
vn -0.0000 0.8990 0.4380
vn -0.3691 0.8911 0.2642
vn -0.3440 0.8305 0.4380
vn -0.6820 0.6820 0.2642
vn -0.6357 0.6357 0.4380
vn -0.8911 0.3691 0.2642
vn -0.8305 0.3440 0.4380
vn -0.9645 0.0000 0.2642
vn -0.8990 -0.0000 0.4380
vn -0.8911 -0.3691 0.2642
vn -0.8305 -0.3440 0.4380
vn -0.6820 -0.6820 0.2642
vn -0.6357 -0.6357 0.4380
vn -0.3691 -0.8911 0.2642
vn -0.3440 -0.8305 0.4380
vn 0.0000 -0.9645 0.2642
vn 0.0000 -0.8990 0.4380
vn 0.3691 -0.8911 0.2642
vn 0.3440 -0.8305 0.4380
vn 0.6820 -0.6820 0.2642
vn 0.6357 -0.6357 0.4380
vn 0.8911 -0.3691 0.2642
vn 0.8305 -0.3440 0.4380
vn -0.0000 -0.0000 1.0000
vn 0.5556 0.8315 0.0000
vn -0.9808 0.1951 0.0000
vn 0.1951 -0.9808 -0.0000
vn 0.8974 -0.4412 -0.0000
vn -0.2688 -0.4023 -0.8752
vn -0.7511 0.6602 0.0000
vn 0.5153 0.7712 0.3737
vn 0.0642 0.9979 0.0000
vn 0.4745 -0.0944 -0.8752
vn -0.3226 -0.9465 -0.0000
vn -0.9097 0.1810 0.3737
vn -0.9465 -0.3226 -0.0000
vn -0.0944 0.4745 -0.8752
vn 0.9979 0.0642 0.0000
vn 0.1810 -0.9097 0.3737
# 104 vertex normals

vt 0.4113 0.2079 0.0000
vt 0.3800 0.2077 0.0000
vt 0.3511 0.1956 0.0000
vt 0.3291 0.1734 0.0000
vt 0.3172 0.1444 0.0000
vt 0.3174 0.1131 0.0000
vt 0.3295 0.0842 0.0000
vt 0.3517 0.0622 0.0000
vt 0.3807 0.0503 0.0000
vt 0.4120 0.0504 0.0000
vt 0.4409 0.0626 0.0000
vt 0.4629 0.0848 0.0000
vt 0.4748 0.1138 0.0000
vt 0.4747 0.1451 0.0000
vt 0.4626 0.1740 0.0000
vt 0.4403 0.1960 0.0000
vt 0.5455 0.7448 0.0000
vt 0.5170 0.7475 0.0000
vt 0.5099 0.7321 0.0000
vt 0.5383 0.7283 0.0000
vt 0.5511 0.7635 0.0000
vt 0.5220 0.7641 0.0000
vt 0.5567 0.7831 0.0000
vt 0.5288 0.7871 0.0000
vt 0.5618 0.8020 0.0000
vt 0.5335 0.8039 0.0000
vt 0.5644 0.8197 0.0000
vt 0.5357 0.8204 0.0000
vt 0.5649 0.8369 0.0000
vt 0.5364 0.8362 0.0000
vt 0.5633 0.8542 0.0000
vt 0.5348 0.8519 0.0000
vt 0.5617 0.8721 0.0000
vt 0.5329 0.8727 0.0000
vt 0.5597 0.8902 0.0000
vt 0.5311 0.8890 0.0000
vt 0.5554 0.9080 0.0000
vt 0.5268 0.9056 0.0000
vt 0.5492 0.9253 0.0000
vt 0.5209 0.9217 0.0000
vt 0.5414 0.9415 0.0000
vt 0.5137 0.9365 0.0000
vt 0.5339 0.9559 0.0000
vt 0.5050 0.9526 0.0000
vt 0.5286 0.9680 0.0000
vt 0.4997 0.9645 0.0000
vt 0.5308 0.7141 0.0000
vt 0.5025 0.7184 0.0000
vt 0.4960 0.7068 0.0000
vt 0.5243 0.7023 0.0000
vt 0.1516 0.7948 0.0000
vt 0.1449 0.7867 0.0000
vt 0.1849 0.7788 0.0000
vt 0.1913 0.7884 0.0000
vt 0.1569 0.8030 0.0000
vt 0.1966 0.7981 0.0000
vt 0.1610 0.8113 0.0000
vt 0.2004 0.8078 0.0000
vt 0.1638 0.8198 0.0000
vt 0.2028 0.8176 0.0000
vt 0.1656 0.8285 0.0000
vt 0.2043 0.8276 0.0000
vt 0.1664 0.8373 0.0000
vt 0.2051 0.8377 0.0000
vt 0.1661 0.8460 0.0000
vt 0.2052 0.8476 0.0000
vt 0.1645 0.8546 0.0000
vt 0.2038 0.8571 0.0000
vt 0.1618 0.8630 0.0000
vt 0.2012 0.8666 0.0000
vt 0.1578 0.8713 0.0000
vt 0.1974 0.8762 0.0000
vt 0.1527 0.8795 0.0000
vt 0.1926 0.8859 0.0000
vt 0.1462 0.8875 0.0000
vt 0.1865 0.8955 0.0000
vt 0.1383 0.8955 0.0000
vt 0.1793 0.9052 0.0000
vt 0.1291 0.9038 0.0000
vt 0.1718 0.9152 0.0000
vt 0.1370 0.7786 0.0000
vt 0.1280 0.7703 0.0000
vt 0.1700 0.7591 0.0000
vt 0.1776 0.7691 0.0000
vt 0.1113 0.8031 0.0000
vt 0.0734 0.8177 0.0000
vt 0.0697 0.8149 0.0000
vt 0.1051 0.7974 0.0000
vt 0.1166 0.8092 0.0000
vt 0.0768 0.8207 0.0000
vt 0.1208 0.8157 0.0000
vt 0.0799 0.8242 0.0000
vt 0.1240 0.8226 0.0000
vt 0.0825 0.8282 0.0000
vt 0.1261 0.8298 0.0000
vt 0.0843 0.8329 0.0000
vt 0.1269 0.8373 0.0000
vt 0.0848 0.8377 0.0000
vt 0.1264 0.8447 0.0000
vt 0.0841 0.8424 0.0000
vt 0.1245 0.8519 0.0000
vt 0.0824 0.8467 0.0000
vt 0.1215 0.8587 0.0000
vt 0.0800 0.8503 0.0000
vt 0.1174 0.8650 0.0000
vt 0.0774 0.8533 0.0000
vt 0.1124 0.8709 0.0000
vt 0.0746 0.8560 0.0000
vt 0.1064 0.8764 0.0000
vt 0.0713 0.8585 0.0000
vt 0.0989 0.8818 0.0000
vt 0.0669 0.8609 0.0000
vt 0.0893 0.8871 0.0000
vt 0.0604 0.8630 0.0000
vt 0.0975 0.7919 0.0000
vt 0.0650 0.8124 0.0000
vt 0.0584 0.8103 0.0000
vt 0.0880 0.7864 0.0000
vt 0.0485 0.8369 0.0000
vt 0.3749 0.7648 0.0000
vt 0.3681 0.7520 0.0000
vt 0.3817 0.7784 0.0000
vt 0.1429 0.1827 0.0000
vt 0.1149 0.1907 0.0000
vt 0.1069 0.0668 0.0000
vt 0.1342 0.0610 0.0000
vt 0.3894 0.8098 0.0000
vt 0.3874 0.7957 0.0000
vt 0.3911 0.8235 0.0000
vt 0.3920 0.8368 0.0000
vt 0.3930 0.8500 0.0000
vt 0.4748 0.5329 0.0000
vt 0.4438 0.5323 0.0000
vt 0.4548 0.4023 0.0000
vt 0.4907 0.4055 0.0000
vt 0.3874 0.8794 0.0000
vt 0.3913 0.8658 0.0000
vt 0.3831 0.8930 0.0000
vt 0.3778 0.9064 0.0000
vt 0.3721 0.9192 0.0000
vt 0.1704 0.5106 0.0000
vt 0.1358 0.5152 0.0000
vt 0.1351 0.3796 0.0000
vt 0.1618 0.3794 0.0000
vt 0.3574 0.9436 0.0000
vt 0.3639 0.9325 0.0000
vt 0.3609 0.7400 0.0000
vt 0.3544 0.7290 0.0000
vt 0.0981 0.2437 0.0000
vt 0.0857 0.0375 0.0000
vt 0.1583 0.0312 0.0000
vt 0.1660 0.2180 0.0000
vt 0.4276 0.5749 0.0000
vt 0.4387 0.3780 0.0000
vt 0.5089 0.3786 0.0000
vt 0.4956 0.5784 0.0000
vt 0.1129 0.5764 0.0000
vt 0.1254 0.3613 0.0000
vt 0.1684 0.3621 0.0000
vt 0.1905 0.5745 0.0000
# 160 texture coords

o Cylinder001
g Cylinder001
usemtl Material__4
s 1
f 1/1/1 2/2/1 3/3/1 
f 3/3/1 4/4/1 5/5/1 
f 5/5/1 6/6/1 7/7/1 
f 3/3/1 5/5/1 7/7/1 
f 7/7/1 8/8/1 9/9/1 
f 9/9/1 10/10/1 11/11/1 
f 7/7/1 9/9/1 11/11/1 
f 11/11/1 12/12/1 13/13/1 
f 13/13/1 14/14/1 15/15/1 
f 11/11/1 13/13/1 15/15/1 
f 7/7/1 11/11/1 15/15/1 
f 3/3/1 7/7/1 15/15/1 
f 1/1/1 3/3/1 15/15/1 
f 16/16/1 1/1/1 15/15/1 
s 8
f 14/17/2 17/18/2 18/19/3 
f 18/19/3 15/20/3 14/17/2 
f 13/21/4 19/22/5 17/18/2 
f 17/18/2 14/17/2 13/21/4 
f 12/23/6 20/24/7 19/22/5 
f 19/22/5 13/21/4 12/23/6 
f 11/25/8 21/26/9 20/24/7 
f 20/24/7 12/23/6 11/25/8 
f 10/27/10 22/28/10 21/26/9 
f 21/26/9 11/25/8 10/27/10 
f 9/29/11 23/30/11 22/28/10 
f 22/28/10 10/27/10 9/29/11 
f 8/31/12 24/32/13 23/30/11 
f 23/30/11 9/29/11 8/31/12 
f 7/33/14 25/34/15 24/32/13 
f 24/32/13 8/31/12 7/33/14 
f 6/35/16 26/36/16 25/34/15 
f 25/34/15 7/33/14 6/35/16 
f 5/37/17 27/38/17 26/36/16 
f 26/36/16 6/35/16 5/37/17 
f 4/39/18 28/40/18 27/38/17 
f 27/38/17 5/37/17 4/39/18 
f 3/41/19 29/42/20 28/40/18 
f 28/40/18 4/39/18 3/41/19 
f 2/43/21 30/44/22 29/42/20 
f 29/42/20 3/41/19 2/43/21 
f 1/45/23 31/46/23 30/44/22 
f 30/44/22 2/43/21 1/45/23 
f 16/47/24 32/48/24 31/49/23 
f 31/49/23 1/50/23 16/47/24 
f 15/20/3 18/19/3 32/48/24 
f 32/48/24 16/47/24 15/20/3 
f 33/51/25 34/52/26 35/53/27 
f 35/53/27 36/54/28 33/51/25 
f 37/55/29 33/51/25 36/54/28 
f 36/54/28 38/56/30 37/55/29 
f 39/57/31 37/55/29 38/56/30 
f 38/56/30 40/58/32 39/57/31 
f 41/59/33 39/57/31 40/58/32 
f 40/58/32 42/60/34 41/59/33 
f 43/61/35 41/59/33 42/60/34 
f 42/60/34 44/62/36 43/61/35 
f 45/63/37 43/61/35 44/62/36 
f 44/62/36 46/64/38 45/63/37 
f 47/65/39 45/63/37 46/64/38 
f 46/64/38 48/66/40 47/65/39 
f 49/67/41 47/65/39 48/66/40 
f 48/66/40 50/68/42 49/67/41 
f 51/69/43 49/67/41 50/68/42 
f 50/68/42 52/70/44 51/69/43 
f 53/71/45 51/69/43 52/70/44 
f 52/70/44 54/72/46 53/71/45 
f 55/73/47 53/71/45 54/72/46 
f 54/72/46 56/74/48 55/73/47 
f 57/75/49 55/73/47 56/74/48 
f 56/74/48 58/76/50 57/75/49 
f 59/77/51 57/75/49 58/76/50 
f 58/76/50 60/78/52 59/77/51 
f 61/79/53 59/77/51 60/78/52 
f 60/78/52 62/80/54 61/79/53 
f 63/81/55 61/82/53 62/83/54 
f 62/83/54 64/84/56 63/81/55 
f 34/52/26 63/81/55 64/84/56 
f 64/84/56 35/53/27 34/52/26 
f 65/85/57 66/86/58 67/87/59 
f 67/87/59 68/88/60 65/85/57 
f 69/89/61 70/90/62 66/86/58 
f 66/86/58 65/85/57 69/89/61 
f 71/91/63 72/92/64 70/90/62 
f 70/90/62 69/89/61 71/91/63 
f 73/93/65 74/94/66 72/92/64 
f 72/92/64 71/91/63 73/93/65 
f 75/95/67 76/96/68 74/94/66 
f 74/94/66 73/93/65 75/95/67 
f 77/97/69 78/98/70 76/96/68 
f 76/96/68 75/95/67 77/97/69 
f 79/99/71 80/100/72 78/98/70 
f 78/98/70 77/97/69 79/99/71 
f 81/101/73 82/102/74 80/100/72 
f 80/100/72 79/99/71 81/101/73 
f 83/103/75 84/104/76 82/102/74 
f 82/102/74 81/101/73 83/103/75 
f 85/105/77 86/106/78 84/104/76 
f 84/104/76 83/103/75 85/105/77 
f 87/107/79 88/108/80 86/106/78 
f 86/106/78 85/105/77 87/107/79 
f 89/109/81 90/110/82 88/108/80 
f 88/108/80 87/107/79 89/109/81 
f 91/111/83 92/112/84 90/110/82 
f 90/110/82 89/109/81 91/111/83 
f 93/113/85 94/114/86 92/112/84 
f 92/112/84 91/111/83 93/113/85 
f 95/115/87 96/116/88 94/117/86 
f 94/117/86 93/118/85 95/115/87 
f 95/115/87 68/88/60 67/87/59 
f 67/87/59 96/116/88 95/115/87 
f 66/86/58 97/119/89 67/87/59 
f 70/90/62 97/119/89 66/86/58 
f 72/92/64 97/119/89 70/90/62 
f 74/94/66 97/119/89 72/92/64 
f 76/96/68 97/119/89 74/94/66 
f 78/98/70 97/119/89 76/96/68 
f 80/100/72 97/119/89 78/98/70 
f 82/102/74 97/119/89 80/100/72 
f 84/104/76 97/119/89 82/102/74 
f 86/106/78 97/119/89 84/104/76 
f 88/108/80 97/119/89 86/106/78 
f 90/110/82 97/119/89 88/108/80 
f 92/112/84 97/119/89 90/110/82 
f 94/114/86 97/119/89 92/112/84 
f 96/116/88 97/119/89 94/117/86 
f 67/87/59 97/119/89 96/116/88 
f 65/85/57 68/88/60 34/52/26 
f 34/52/26 33/51/25 65/85/57 
f 69/89/61 65/85/57 33/51/25 
f 33/51/25 37/55/29 69/89/61 
f 71/91/63 69/89/61 37/55/29 
f 37/55/29 39/57/31 71/91/63 
f 73/93/65 71/91/63 39/57/31 
f 39/57/31 41/59/33 73/93/65 
f 75/95/67 73/93/65 41/59/33 
f 41/59/33 43/61/35 75/95/67 
f 77/97/69 75/95/67 43/61/35 
f 43/61/35 45/63/37 77/97/69 
f 79/99/71 77/97/69 45/63/37 
f 45/63/37 47/65/39 79/99/71 
f 81/101/73 79/99/71 47/65/39 
f 47/65/39 49/67/41 81/101/73 
f 83/103/75 81/101/73 49/67/41 
f 49/67/41 51/69/43 83/103/75 
f 85/105/77 83/103/75 51/69/43 
f 51/69/43 53/71/45 85/105/77 
f 87/107/79 85/105/77 53/71/45 
f 53/71/45 55/73/47 87/107/79 
f 89/109/81 87/107/79 55/73/47 
f 55/73/47 57/75/49 89/109/81 
f 91/111/83 89/109/81 57/75/49 
f 57/75/49 59/77/51 91/111/83 
f 93/113/85 91/111/83 59/77/51 
f 59/77/51 61/79/53 93/113/85 
f 95/115/87 93/118/85 61/82/53 
f 61/82/53 63/81/55 95/115/87 
f 68/88/60 95/115/87 63/81/55 
f 63/81/55 34/52/26 68/88/60 
f 98/120/2 99/121/3 18/19/3 
f 18/19/3 17/18/2 98/120/2 
f 100/122/5 98/120/2 17/18/2 
f 17/18/2 19/22/5 100/122/5 
f 101/123/90 102/124/90 103/125/90 
f 103/125/90 104/126/90 101/123/90 
f 105/127/8 106/128/7 20/24/7 
f 20/24/7 21/26/9 105/127/8 
f 107/129/10 105/127/8 21/26/9 
f 21/26/9 22/28/10 107/129/10 
f 108/130/11 107/129/10 22/28/10 
f 22/28/10 23/30/11 108/130/11 
f 109/131/13 108/130/11 23/30/11 
f 23/30/11 24/32/13 109/131/13 
f 110/132/91 111/133/91 112/134/91 
f 112/134/91 113/135/91 110/132/91 
f 114/136/16 115/137/15 25/34/15 
f 25/34/15 26/36/16 114/136/16 
f 116/138/17 114/136/16 26/36/16 
f 26/36/16 27/38/17 116/138/17 
f 117/139/18 116/138/17 27/38/17 
f 27/38/17 28/40/18 117/139/18 
f 118/140/20 117/139/18 28/40/18 
f 28/40/18 29/42/20 118/140/20 
f 119/141/92 120/142/92 121/143/92 
f 121/143/92 122/144/92 119/141/92 
f 123/145/23 124/146/22 30/44/22 
f 30/44/22 31/46/23 123/145/23 
f 125/147/24 123/148/23 31/49/23 
f 31/49/23 32/48/24 125/147/24 
f 99/121/3 125/147/24 32/48/24 
f 32/48/24 18/19/3 99/121/3 
f 36/54/28 35/53/27 99/121/3 
f 99/121/3 98/120/2 36/54/28 
f 38/56/30 36/54/28 98/120/2 
f 98/120/2 100/122/5 38/56/30 
f 40/58/32 38/56/30 100/122/5 
f 100/122/5 106/128/7 40/58/32 
f 42/60/34 40/58/32 106/128/7 
f 106/128/7 105/127/8 42/60/34 
f 44/62/36 42/60/34 105/127/8 
f 105/127/8 107/129/10 44/62/36 
f 46/64/38 44/62/36 107/129/10 
f 107/129/10 108/130/11 46/64/38 
f 48/66/40 46/64/38 108/130/11 
f 108/130/11 109/131/13 48/66/40 
f 50/68/42 48/66/40 109/131/13 
f 109/131/13 115/137/15 50/68/42 
f 52/70/44 50/68/42 115/137/15 
f 115/137/15 114/136/16 52/70/44 
f 54/72/46 52/70/44 114/136/16 
f 114/136/16 116/138/17 54/72/46 
f 56/74/48 54/72/46 116/138/17 
f 116/138/17 117/139/18 56/74/48 
f 58/76/50 56/74/48 117/139/18 
f 117/139/18 118/140/20 58/76/50 
f 60/78/52 58/76/50 118/140/20 
f 118/140/20 124/146/22 60/78/52 
f 62/80/54 60/78/52 124/146/22 
f 124/146/22 123/145/23 62/80/54 
f 64/84/56 62/83/54 123/148/23 
f 123/148/23 125/147/24 64/84/56 
f 35/53/27 64/84/56 125/147/24 
f 125/147/24 99/121/3 35/53/27 
s off
f 100/149/93 19/150/93 103/125/93 
f 103/125/93 102/124/93 100/149/93 
f 19/150/94 20/151/94 104/126/94 
f 104/126/94 103/125/94 19/150/94 
f 20/151/95 106/152/95 101/123/95 
f 101/123/95 104/126/95 20/151/95 
f 106/152/96 100/149/96 102/124/96 
f 102/124/96 101/123/96 106/152/96 
f 109/153/97 24/154/97 112/134/97 
f 112/134/97 111/133/97 109/153/97 
f 24/154/98 25/155/98 113/135/98 
f 113/135/98 112/134/98 24/154/98 
f 25/155/99 115/156/99 110/132/99 
f 110/132/99 113/135/99 25/155/99 
f 115/156/100 109/153/100 111/133/100 
f 111/133/100 110/132/100 115/156/100 
f 118/157/101 29/158/101 121/143/101 
f 121/143/101 120/142/101 118/157/101 
f 29/158/102 30/159/102 122/144/102 
f 122/144/102 121/143/102 29/158/102 
f 30/159/103 124/160/103 119/141/103 
f 119/141/103 122/144/103 30/159/103 
f 124/160/104 118/157/104 120/142/104 
f 120/142/104 119/141/104 124/160/104 
# 246 faces

