# 3ds Max Wavefront OBJ Exporter v0.97b - (c)2007 guruware
# File Created: 01.04.2019 04:34:57

mtllib BulletA.mtl

#
# object Cylinder001
#

v  -12.6975 5.9210 -99.5004
v  -8.0359 11.4765 -99.5004
v  -1.2211 13.9569 -99.5004
v  5.9210 12.6975 -99.5004
v  11.4765 8.0359 -99.5004
v  13.9569 1.2211 -99.5004
v  12.6975 -5.9210 -99.5004
v  8.0359 -11.4765 -99.5004
v  1.2211 -13.9569 -99.5004
v  -5.9210 -12.6975 -99.5004
v  -11.4765 -8.0359 -99.5004
v  -13.9569 -1.2211 -99.5004
v  -5.9210 -12.6975 -95.0866
v  -11.4765 -8.0359 -95.0866
v  1.2211 -13.9569 -95.0866
v  8.0359 -11.4765 -95.0866
v  12.6975 -5.9210 -95.0866
v  13.9569 1.2211 -95.0866
v  11.4765 8.0359 -95.0866
v  5.9210 12.6975 -95.0866
v  -1.2211 13.9569 -95.0866
v  -8.0359 11.4765 -95.0866
v  -12.6975 5.9210 -95.0866
v  -13.9569 -1.2211 -95.0866
v  -5.5060 -11.8077 -43.2287
v  -10.6722 -7.4728 -43.2287
v  -11.4765 -8.0359 -49.0585
v  -5.9210 -12.6975 -49.0585
v  1.1355 -12.9788 -43.2287
v  1.2211 -13.9569 -49.0585
v  7.4728 -10.6722 -43.2287
v  8.0359 -11.4765 -49.0585
v  11.8077 -5.5060 -43.2287
v  12.6975 -5.9210 -49.0585
v  12.9788 1.1355 -43.2287
v  13.9569 1.2211 -49.0585
v  10.6722 7.4728 -43.2287
v  11.4765 8.0359 -49.0585
v  5.5060 11.8077 -43.2287
v  5.9210 12.6975 -49.0585
v  -1.1355 12.9788 -43.2287
v  -1.2211 13.9569 -49.0585
v  -7.4728 10.6722 -43.2287
v  -8.0359 11.4765 -49.0585
v  -11.8077 5.5060 -43.2287
v  -12.6975 5.9210 -49.0585
v  -12.9788 -1.1355 -43.2287
v  -13.9569 -1.2211 -49.0585
v  -4.3926 -9.4200 -37.3989
v  -2.7275 -5.8492 -31.5690
v  -5.2867 -3.7018 -31.5690
v  -8.5141 -5.9616 -37.3989
v  0.9059 -10.3543 -37.3989
v  0.5625 -6.4293 -31.5690
v  5.9616 -8.5141 -37.3989
v  3.7018 -5.2867 -31.5690
v  9.4200 -4.3926 -37.3989
v  5.8492 -2.7275 -31.5690
v  10.3543 0.9059 -37.3989
v  6.4293 0.5625 -31.5690
v  8.5141 5.9616 -37.3989
v  5.2867 3.7018 -31.5690
v  4.3926 9.4200 -37.3989
v  2.7275 5.8492 -31.5690
v  -0.9059 10.3543 -37.3989
v  -0.5625 6.4293 -31.5690
v  -5.9616 8.5141 -37.3989
v  -3.7018 5.2867 -31.5690
v  -9.4200 4.3926 -37.3989
v  -5.8492 2.7275 -31.5690
v  -10.3543 -0.9059 -37.3989
v  -6.4293 -0.5625 -31.5690
v  -0.0000 -0.0000 -25.7392
v  -5.6601 -12.1381 -90.8590
v  -10.9708 -7.6818 -90.8590
v  -10.9708 -7.6819 -95.0866
v  -5.6601 -12.1381 -95.0866
v  1.1673 -13.3419 -90.8590
v  1.1673 -13.3419 -95.0866
v  7.6819 -10.9708 -90.8590
v  7.6819 -10.9708 -95.0866
v  12.1381 -5.6601 -90.8590
v  12.1381 -5.6601 -95.0866
v  13.3419 1.1673 -90.8590
v  13.3419 1.1673 -95.0866
v  10.9708 7.6819 -90.8590
v  10.9708 7.6819 -95.0866
v  5.6601 12.1381 -90.8590
v  5.6601 12.1381 -95.0866
v  -1.1673 13.3419 -90.8590
v  -1.1673 13.3419 -95.0866
v  -7.6818 10.9708 -90.8590
v  -7.6818 10.9708 -95.0866
v  -12.1381 5.6601 -90.8590
v  -12.1381 5.6601 -95.0866
v  -13.3419 -1.1672 -90.8590
v  -13.3419 -1.1673 -95.0866
v  -5.9210 -12.6975 -89.2919
v  -11.4765 -8.0359 -89.2919
v  -11.4765 -8.0359 -90.8590
v  -5.9210 -12.6975 -90.8590
v  1.2211 -13.9569 -89.2919
v  1.2211 -13.9569 -90.8590
v  8.0359 -11.4765 -89.2919
v  8.0359 -11.4765 -90.8590
v  12.6975 -5.9210 -89.2919
v  12.6975 -5.9210 -90.8590
v  13.9569 1.2211 -89.2919
v  13.9569 1.2211 -90.8590
v  11.4765 8.0359 -89.2919
v  11.4765 8.0359 -90.8590
v  5.9210 12.6975 -89.2919
v  5.9210 12.6975 -90.8590
v  -1.2211 13.9569 -89.2919
v  -1.2211 13.9569 -90.8590
v  -8.0359 11.4765 -89.2919
v  -8.0359 11.4765 -90.8590
v  -12.6975 5.9210 -89.2919
v  -12.6975 5.9210 -90.8590
v  -13.9569 -1.2211 -89.2919
v  -13.9569 -1.2211 -90.8590
v  -5.6601 -12.1381 -85.1530
v  -10.9708 -7.6819 -85.1530
v  -10.9708 -7.6819 -89.2919
v  -5.6601 -12.1381 -89.2919
v  1.1673 -13.3419 -85.1530
v  1.1673 -13.3419 -89.2919
v  7.6818 -10.9708 -85.1530
v  7.6819 -10.9708 -89.2919
v  12.1381 -5.6601 -85.1530
v  12.1381 -5.6601 -89.2919
v  13.3419 1.1673 -85.1530
v  13.3419 1.1673 -89.2919
v  10.9708 7.6819 -85.1530
v  10.9708 7.6819 -89.2919
v  5.6601 12.1381 -85.1530
v  5.6601 12.1381 -89.2919
v  -1.1673 13.3419 -85.1530
v  -1.1673 13.3419 -89.2919
v  -7.6818 10.9708 -85.1530
v  -7.6818 10.9708 -89.2919
v  -12.1381 5.6601 -85.1530
v  -12.1381 5.6601 -89.2919
v  -13.3419 -1.1673 -85.1530
v  -13.3419 -1.1673 -89.2919
v  -11.4765 -8.0359 -85.1530
v  -5.9210 -12.6975 -85.1530
v  1.2211 -13.9569 -85.1530
v  8.0359 -11.4765 -85.1530
v  12.6975 -5.9210 -85.1530
v  13.9569 1.2211 -85.1530
v  11.4765 8.0359 -85.1530
v  5.9210 12.6975 -85.1530
v  -1.2211 13.9569 -85.1530
v  -8.0359 11.4765 -85.1530
v  -12.6975 5.9210 -85.1530
v  -13.9569 -1.2211 -85.1530
# 157 vertices

vn 0.0000 0.0000 -1.0000
vn -0.4226 -0.9063 -0.0000
vn -0.8192 -0.5736 -0.0000
vn 0.0872 -0.9962 -0.0000
vn 0.5736 -0.8192 -0.0000
vn 0.9063 -0.4226 0.0000
vn 0.9962 0.0872 0.0000
vn 0.8192 0.5736 0.0000
vn 0.4226 0.9063 0.0000
vn -0.0872 0.9962 0.0000
vn -0.5736 0.8192 0.0000
vn -0.9063 0.4226 -0.0000
vn -0.9962 -0.0872 -0.0000
vn -0.4050 -0.8686 0.2856
vn -0.7850 -0.5497 0.2856
vn -0.8164 -0.5716 0.0822
vn -0.4212 -0.9032 0.0822
vn 0.0835 -0.9547 0.2856
vn 0.0869 -0.9928 0.0822
vn 0.5497 -0.7850 0.2856
vn 0.5716 -0.8164 0.0822
vn 0.8686 -0.4050 0.2856
vn 0.9032 -0.4212 0.0822
vn 0.9547 0.0835 0.2856
vn 0.9928 0.0869 0.0822
vn 0.7850 0.5497 0.2856
vn 0.8164 0.5716 0.0822
vn 0.4050 0.8686 0.2856
vn 0.4212 0.9032 0.0822
vn -0.0835 0.9547 0.2856
vn -0.0869 0.9928 0.0822
vn -0.5497 0.7850 0.2856
vn -0.5716 0.8164 0.0822
vn -0.8686 0.4050 0.2856
vn -0.9032 0.4212 0.0822
vn -0.9547 -0.0835 0.2856
vn -0.9928 -0.0869 0.0822
vn -0.3703 -0.7942 0.4818
vn -0.3226 -0.6918 0.6461
vn -0.6252 -0.4378 0.6461
vn -0.7178 -0.5026 0.4818
vn 0.0764 -0.8730 0.4818
vn 0.0665 -0.7604 0.6461
vn 0.5026 -0.7178 0.4818
vn 0.4378 -0.6252 0.6461
vn 0.7942 -0.3703 0.4818
vn 0.6918 -0.3226 0.6461
vn 0.8730 0.0764 0.4818
vn 0.7604 0.0665 0.6461
vn 0.7178 0.5026 0.4818
vn 0.6252 0.4378 0.6461
vn 0.3703 0.7942 0.4818
vn 0.3226 0.6918 0.6461
vn -0.0764 0.8730 0.4818
vn -0.0665 0.7604 0.6461
vn -0.5026 0.7178 0.4818
vn -0.4378 0.6252 0.6461
vn -0.7942 0.3703 0.4818
vn -0.6918 0.3226 0.6461
vn -0.8730 -0.0764 0.4818
vn -0.7604 -0.0665 0.6461
vn -0.0000 0.0000 1.0000
vn -0.4226 -0.9063 0.0000
vn -0.8192 -0.5736 0.0000
vn 0.5736 -0.8192 0.0000
vn 0.9063 -0.4226 -0.0000
vn 0.9962 0.0872 -0.0000
vn 0.8192 0.5736 -0.0000
vn 0.4226 0.9063 -0.0000
vn -0.9962 -0.0872 0.0000
vn 0.0872 -0.9962 0.0000
vn -0.0872 0.9962 -0.0000
vn -0.5736 0.8192 -0.0000
vn -0.9063 0.4226 0.0000
vn -0.0000 -0.0000 1.0000
vn -0.0000 0.0000 -1.0000
vn 0.0000 -0.0000 -1.0000
# 77 vertex normals

vt 0.5745 0.9630 0.0000
vt 0.5161 0.9786 0.0000
vt 0.4576 0.9630 0.0000
vt 0.4148 0.9202 0.0000
vt 0.3992 0.8617 0.0000
vt 0.4148 0.8033 0.0000
vt 0.4576 0.7605 0.0000
vt 0.5161 0.7448 0.0000
vt 0.5745 0.7605 0.0000
vt 0.6173 0.8033 0.0000
vt 0.6330 0.8617 0.0000
vt 0.6173 0.9202 0.0000
vt 0.0679 0.7819 -59.1117
vt 0.0903 0.7818 -59.1117
vt 0.0907 0.8174 -59.1117
vt 0.0683 0.8183 -59.1117
vt 0.0694 0.7451 -59.1117
vt 0.0926 0.7463 -59.1117
vt 0.1598 0.5631 -59.2675
vt 0.1825 0.5601 -59.2675
vt 0.1875 0.5964 -59.2675
vt 0.1652 0.5997 -59.2675
vt 0.1554 0.5242 -59.2675
vt 0.1793 0.5219 -59.2675
vt 0.1534 0.4840 -59.2675
vt 0.1779 0.4827 -59.2675
vt 0.1528 0.4441 -59.2675
vt 0.1774 0.4435 -59.2675
vt 0.1533 0.4042 -59.2675
vt 0.1777 0.4047 -59.2675
vt 0.1557 0.3640 -59.2675
vt 0.1811 0.3660 -59.2675
vt 0.0746 0.9274 -59.1117
vt 0.0959 0.9246 -59.1117
vt 0.1012 0.9592 -59.1117
vt 0.0799 0.9624 -59.1117
vt 0.0714 0.8911 -59.1117
vt 0.0936 0.8891 -59.1117
vt 0.0695 0.8547 -59.1117
vt 0.0919 0.8533 -59.1117
vt 0.3481 0.7834 -59.1117
vt 0.3425 0.8144 -59.1117
vt 0.3161 0.8119 -59.1117
vt 0.3196 0.7776 -59.1117
vt 0.3593 0.7488 -59.1117
vt 0.3259 0.7398 -59.1117
vt 0.4604 0.5426 -59.2675
vt 0.4746 0.5781 -59.2675
vt 0.4398 0.5899 -59.2675
vt 0.4303 0.5505 -59.2675
vt 0.4523 0.5099 -59.2675
vt 0.4240 0.5137 -59.2675
vt 0.4494 0.4782 -59.2675
vt 0.4215 0.4784 -59.2675
vt 0.4512 0.4462 -59.2675
vt 0.4226 0.4429 -59.2675
vt 0.4581 0.4127 -59.2675
vt 0.4272 0.4056 -59.2675
vt 0.4711 0.3754 -59.2675
vt 0.4351 0.3647 -59.2675
vt 0.3531 0.9030 -59.1117
vt 0.3670 0.9354 -59.1117
vt 0.3352 0.9471 -59.1117
vt 0.3255 0.9110 -59.1117
vt 0.3449 0.8730 -59.1117
vt 0.3189 0.8771 -59.1117
vt 0.3415 0.8439 -59.1117
vt 0.3159 0.8446 -59.1117
vt 0.3784 0.7937 -59.1117
vt 0.4105 0.8111 -59.1117
vt 0.4035 0.8265 -59.1117
vt 0.3711 0.8188 -59.1117
vt 0.3929 0.7676 -59.1117
vt 0.4233 0.7972 -59.1117
vt 0.4917 0.5302 -59.2675
vt 0.5247 0.5112 -59.2675
vt 0.5382 0.5252 -59.2675
vt 0.5082 0.5566 -59.2675
vt 0.4826 0.5041 -59.2675
vt 0.5169 0.4951 -59.2675
vt 0.4796 0.4780 -59.2675
vt 0.5144 0.4780 -59.2675
vt 0.4821 0.4517 -59.2675
vt 0.5171 0.4609 -59.2675
vt 0.4907 0.4247 -59.2675
vt 0.5251 0.4443 -59.2675
vt 0.5072 0.3967 -59.2675
vt 0.5393 0.4296 -59.2675
vt 0.3817 0.8909 -59.1117
vt 0.4116 0.8727 -59.1117
vt 0.4243 0.8853 -59.1117
vt 0.3974 0.9148 -59.1117
vt 0.3727 0.8670 -59.1117
vt 0.4041 0.8580 -59.1117
vt 0.3693 0.8431 -59.1117
vt 0.4014 0.8423 -59.1117
vt 0.4468 0.8416 59.1117
vt 0.5637 0.4784 59.2675
vt 0.1146 0.7812 -59.1117
vt 0.1151 0.8162 -59.1117
vt 0.0937 0.8173 -59.1117
vt 0.0932 0.7819 -59.1117
vt 0.1136 0.7473 -59.1117
vt 0.0953 0.7472 -59.1117
vt 0.2082 0.5577 -59.2675
vt 0.2097 0.5936 -59.2675
vt 0.1906 0.5951 -59.2675
vt 0.1855 0.5598 -59.2675
vt 0.2057 0.5204 -59.2675
vt 0.1829 0.5217 -59.2675
vt 0.2044 0.4815 -59.2675
vt 0.1812 0.4827 -59.2675
vt 0.2040 0.4427 -59.2675
vt 0.1807 0.4435 -59.2675
vt 0.2042 0.4046 -59.2675
vt 0.1809 0.4048 -59.2675
vt 0.2040 0.3675 -59.2675
vt 0.1840 0.3670 -59.2675
vt 0.1201 0.9217 -59.1117
vt 0.1223 0.9558 -59.1117
vt 0.1041 0.9579 -59.1117
vt 0.0989 0.9243 -59.1117
vt 0.1178 0.8871 -59.1117
vt 0.0966 0.8890 -59.1117
vt 0.1161 0.8517 -59.1117
vt 0.0949 0.8532 -59.1117
vt 0.1253 0.7812 -59.1117
vt 0.1262 0.8161 -59.1117
vt 0.1181 0.8161 -59.1117
vt 0.1176 0.7812 -59.1117
vt 0.1250 0.7462 -59.1117
vt 0.1167 0.7463 -59.1117
vt 0.2193 0.5573 -59.2675
vt 0.2213 0.5939 -59.2675
vt 0.2126 0.5943 -59.2675
vt 0.2111 0.5575 -59.2675
vt 0.2178 0.5200 -59.2675
vt 0.2089 0.5202 -59.2675
vt 0.2167 0.4815 -59.2675
vt 0.2077 0.4815 -59.2675
vt 0.2162 0.4429 -59.2675
vt 0.2072 0.4428 -59.2675
vt 0.2160 0.4048 -59.2675
vt 0.2076 0.4046 -59.2675
vt 0.2164 0.3666 -59.2675
vt 0.2074 0.3666 -59.2675
vt 0.1306 0.9213 -59.1117
vt 0.1332 0.9558 -59.1117
vt 0.1250 0.9563 -59.1117
vt 0.1229 0.9216 -59.1117
vt 0.1289 0.8866 -59.1117
vt 0.1208 0.8869 -59.1117
vt 0.1274 0.8514 -59.1117
vt 0.1191 0.8516 -59.1117
vt 0.1490 0.7796 -59.1117
vt 0.1498 0.8148 -59.1117
vt 0.1292 0.8160 -59.1117
vt 0.1282 0.7812 -59.1117
vt 0.1457 0.7457 -59.1117
vt 0.1277 0.7469 -59.1117
vt 0.2446 0.5558 -59.2675
vt 0.2437 0.5925 -59.2675
vt 0.2245 0.5929 -59.2675
vt 0.2225 0.5572 -59.2675
vt 0.2432 0.5184 -59.2675
vt 0.2210 0.5199 -59.2675
vt 0.2422 0.4802 -59.2675
vt 0.2200 0.4814 -59.2675
vt 0.2419 0.4420 -59.2675
vt 0.2194 0.4428 -59.2675
vt 0.2418 0.4036 -59.2675
vt 0.2191 0.4048 -59.2675
vt 0.2390 0.3666 -59.2675
vt 0.2194 0.3674 -59.2675
vt 0.1542 0.9196 -59.1117
vt 0.1541 0.9538 -59.1117
vt 0.1362 0.9547 -59.1117
vt 0.1336 0.9211 -59.1117
vt 0.1523 0.8849 -59.1117
vt 0.1319 0.8865 -59.1117
vt 0.1508 0.8499 -59.1117
vt 0.1304 0.8513 -59.1117
vt 0.1528 0.8147 -59.1117
vt 0.1520 0.7794 -59.1117
vt 0.1487 0.7446 -59.1117
vt 0.2465 0.5933 -59.2675
vt 0.2477 0.5558 -59.2675
vt 0.2464 0.5183 -59.2675
vt 0.2455 0.4802 -59.2675
vt 0.2451 0.4420 -59.2675
vt 0.2451 0.4035 -59.2675
vt 0.2424 0.3655 -59.2675
vt 0.1568 0.9545 -59.1117
vt 0.1570 0.9195 -59.1117
vt 0.1553 0.8848 -59.1117
vt 0.1538 0.8498 -59.1117
# 196 texture coords

o Cylinder001
g Cylinder001
usemtl Material__25
f 1/1/1 2/2/1 3/3/1 
f 3/3/1 4/4/1 5/5/1 
f 5/5/1 6/6/1 7/7/1 
f 3/3/1 5/5/1 7/7/1 
f 7/7/1 8/8/1 9/9/1 
f 9/9/1 10/10/1 11/11/1 
f 7/7/1 9/9/1 11/11/1 
f 3/3/1 7/7/1 11/11/1 
f 1/1/1 3/3/1 11/11/1 
f 12/12/1 1/1/1 11/11/1 
f 10/13/2 13/14/2 14/15/3 
f 14/15/3 11/16/3 10/13/2 
f 9/17/4 15/18/4 13/14/2 
f 13/14/2 10/13/2 9/17/4 
f 8/19/5 16/20/5 15/21/4 
f 15/21/4 9/22/4 8/19/5 
f 7/23/6 17/24/6 16/20/5 
f 16/20/5 8/19/5 7/23/6 
f 6/25/7 18/26/7 17/24/6 
f 17/24/6 7/23/6 6/25/7 
f 5/27/8 19/28/8 18/26/7 
f 18/26/7 6/25/7 5/27/8 
f 4/29/9 20/30/9 19/28/8 
f 19/28/8 5/27/8 4/29/9 
f 3/31/10 21/32/10 20/30/9 
f 20/30/9 4/29/9 3/31/10 
f 2/33/11 22/34/11 21/35/10 
f 21/35/10 3/36/10 2/33/11 
f 1/37/12 23/38/12 22/34/11 
f 22/34/11 2/33/11 1/37/12 
f 12/39/13 24/40/13 23/38/12 
f 23/38/12 1/37/12 12/39/13 
f 11/16/3 14/15/3 24/40/13 
f 24/40/13 12/39/13 11/16/3 
f 25/41/14 26/42/15 27/43/16 
f 27/43/16 28/44/17 25/41/14 
f 29/45/18 25/41/14 28/44/17 
f 28/44/17 30/46/19 29/45/18 
f 31/47/20 29/48/18 30/49/19 
f 30/49/19 32/50/21 31/47/20 
f 33/51/22 31/47/20 32/50/21 
f 32/50/21 34/52/23 33/51/22 
f 35/53/24 33/51/22 34/52/23 
f 34/52/23 36/54/25 35/53/24 
f 37/55/26 35/53/24 36/54/25 
f 36/54/25 38/56/27 37/55/26 
f 39/57/28 37/55/26 38/56/27 
f 38/56/27 40/58/29 39/57/28 
f 41/59/30 39/57/28 40/58/29 
f 40/58/29 42/60/31 41/59/30 
f 43/61/32 41/62/30 42/63/31 
f 42/63/31 44/64/33 43/61/32 
f 45/65/34 43/61/32 44/64/33 
f 44/64/33 46/66/35 45/65/34 
f 47/67/36 45/65/34 46/66/35 
f 46/66/35 48/68/37 47/67/36 
f 26/42/15 47/67/36 48/68/37 
f 48/68/37 27/43/16 26/42/15 
f 49/69/38 50/70/39 51/71/40 
f 51/71/40 52/72/41 49/69/38 
f 53/73/42 54/74/43 50/70/39 
f 50/70/39 49/69/38 53/73/42 
f 55/75/44 56/76/45 54/77/43 
f 54/77/43 53/78/42 55/75/44 
f 57/79/46 58/80/47 56/76/45 
f 56/76/45 55/75/44 57/79/46 
f 59/81/48 60/82/49 58/80/47 
f 58/80/47 57/79/46 59/81/48 
f 61/83/50 62/84/51 60/82/49 
f 60/82/49 59/81/48 61/83/50 
f 63/85/52 64/86/53 62/84/51 
f 62/84/51 61/83/50 63/85/52 
f 65/87/54 66/88/55 64/86/53 
f 64/86/53 63/85/52 65/87/54 
f 67/89/56 68/90/57 66/91/55 
f 66/91/55 65/92/54 67/89/56 
f 69/93/58 70/94/59 68/90/57 
f 68/90/57 67/89/56 69/93/58 
f 71/95/60 72/96/61 70/94/59 
f 70/94/59 69/93/58 71/95/60 
f 71/95/60 52/72/41 51/71/40 
f 51/71/40 72/96/61 71/95/60 
f 50/70/39 73/97/62 51/71/40 
f 54/74/43 73/97/62 50/70/39 
f 56/76/45 73/98/62 54/77/43 
f 58/80/47 73/98/62 56/76/45 
f 60/82/49 73/98/62 58/80/47 
f 62/84/51 73/98/62 60/82/49 
f 64/86/53 73/98/62 62/84/51 
f 66/88/55 73/98/62 64/86/53 
f 68/90/57 73/97/62 66/91/55 
f 70/94/59 73/97/62 68/90/57 
f 72/96/61 73/97/62 70/94/59 
f 51/71/40 73/97/62 72/96/61 
f 49/69/38 52/72/41 26/42/15 
f 26/42/15 25/41/14 49/69/38 
f 53/73/42 49/69/38 25/41/14 
f 25/41/14 29/45/18 53/73/42 
f 55/75/44 53/78/42 29/48/18 
f 29/48/18 31/47/20 55/75/44 
f 57/79/46 55/75/44 31/47/20 
f 31/47/20 33/51/22 57/79/46 
f 59/81/48 57/79/46 33/51/22 
f 33/51/22 35/53/24 59/81/48 
f 61/83/50 59/81/48 35/53/24 
f 35/53/24 37/55/26 61/83/50 
f 63/85/52 61/83/50 37/55/26 
f 37/55/26 39/57/28 63/85/52 
f 65/87/54 63/85/52 39/57/28 
f 39/57/28 41/59/30 65/87/54 
f 67/89/56 65/92/54 41/62/30 
f 41/62/30 43/61/32 67/89/56 
f 69/93/58 67/89/56 43/61/32 
f 43/61/32 45/65/34 69/93/58 
f 71/95/60 69/93/58 45/65/34 
f 45/65/34 47/67/36 71/95/60 
f 52/72/41 71/95/60 47/67/36 
f 47/67/36 26/42/15 52/72/41 
f 74/99/63 75/100/64 76/101/3 
f 76/101/3 77/102/63 74/99/63 
f 78/103/4 74/99/63 77/102/63 
f 77/102/63 79/104/4 78/103/4 
f 80/105/5 78/106/4 79/107/4 
f 79/107/4 81/108/65 80/105/5 
f 82/109/66 80/105/5 81/108/65 
f 81/108/65 83/110/6 82/109/66 
f 84/111/67 82/109/66 83/110/6 
f 83/110/6 85/112/67 84/111/67 
f 86/113/8 84/111/67 85/112/67 
f 85/112/67 87/114/68 86/113/8 
f 88/115/69 86/113/8 87/114/68 
f 87/114/68 89/116/69 88/115/69 
f 90/117/10 88/115/69 89/116/69 
f 89/116/69 91/118/10 90/117/10 
f 92/119/11 90/120/10 91/121/10 
f 91/121/10 93/122/11 92/119/11 
f 94/123/12 92/119/11 93/122/11 
f 93/122/11 95/124/12 94/123/12 
f 96/125/70 94/123/12 95/124/12 
f 95/124/12 97/126/13 96/125/70 
f 75/100/64 96/125/70 97/126/13 
f 97/126/13 76/101/3 75/100/64 
f 98/127/2 99/128/3 100/129/3 
f 100/129/3 101/130/2 98/127/2 
f 102/131/4 98/127/2 101/130/2 
f 101/130/2 103/132/4 102/131/4 
f 104/133/5 102/134/4 103/135/4 
f 103/135/4 105/136/5 104/133/5 
f 106/137/6 104/133/5 105/136/5 
f 105/136/5 107/138/6 106/137/6 
f 108/139/7 106/137/6 107/138/6 
f 107/138/6 109/140/7 108/139/7 
f 110/141/8 108/139/7 109/140/7 
f 109/140/7 111/142/8 110/141/8 
f 112/143/9 110/141/8 111/142/8 
f 111/142/8 113/144/9 112/143/9 
f 114/145/10 112/143/9 113/144/9 
f 113/144/9 115/146/10 114/145/10 
f 116/147/11 114/148/10 115/149/10 
f 115/149/10 117/150/11 116/147/11 
f 118/151/12 116/147/11 117/150/11 
f 117/150/11 119/152/12 118/151/12 
f 120/153/13 118/151/12 119/152/12 
f 119/152/12 121/154/13 120/153/13 
f 99/128/3 120/153/13 121/154/13 
f 121/154/13 100/129/3 99/128/3 
f 122/155/2 123/156/3 124/157/3 
f 124/157/3 125/158/2 122/155/2 
f 126/159/71 122/155/2 125/158/2 
f 125/158/2 127/160/4 126/159/71 
f 128/161/65 126/162/71 127/163/4 
f 127/163/4 129/164/5 128/161/65 
f 130/165/6 128/161/65 129/164/5 
f 129/164/5 131/166/66 130/165/6 
f 132/167/7 130/165/6 131/166/66 
f 131/166/66 133/168/7 132/167/7 
f 134/169/8 132/167/7 133/168/7 
f 133/168/7 135/170/8 134/169/8 
f 136/171/9 134/169/8 135/170/8 
f 135/170/8 137/172/9 136/171/9 
f 138/173/72 136/171/9 137/172/9 
f 137/172/9 139/174/72 138/173/72 
f 140/175/73 138/176/72 139/177/72 
f 139/177/72 141/178/11 140/175/73 
f 142/179/74 140/175/73 141/178/11 
f 141/178/11 143/180/74 142/179/74 
f 144/181/13 142/179/74 143/180/74 
f 143/180/74 145/182/13 144/181/13 
f 123/156/3 144/181/13 145/182/13 
f 145/182/13 124/157/3 123/156/3 
f 28/44/17 27/43/16 146/183/3 
f 146/183/3 147/184/2 28/44/17 
f 30/46/19 28/44/17 147/184/2 
f 147/184/2 148/185/4 30/46/19 
f 32/50/21 30/49/19 148/186/4 
f 148/186/4 149/187/5 32/50/21 
f 34/52/23 32/50/21 149/187/5 
f 149/187/5 150/188/6 34/52/23 
f 36/54/25 34/52/23 150/188/6 
f 150/188/6 151/189/7 36/54/25 
f 38/56/27 36/54/25 151/189/7 
f 151/189/7 152/190/8 38/56/27 
f 40/58/29 38/56/27 152/190/8 
f 152/190/8 153/191/9 40/58/29 
f 42/60/31 40/58/29 153/191/9 
f 153/191/9 154/192/10 42/60/31 
f 44/64/33 42/63/31 154/193/10 
f 154/193/10 155/194/11 44/64/33 
f 46/66/35 44/64/33 155/194/11 
f 155/194/11 156/195/12 46/66/35 
f 48/68/37 46/66/35 156/195/12 
f 156/195/12 157/196/13 48/68/37 
f 27/43/16 48/68/37 157/196/13 
f 157/196/13 146/183/3 27/43/16 
f 14/15/75 13/14/75 77/102/75 
f 77/102/75 76/101/75 14/15/75 
f 13/14/75 15/18/75 79/104/75 
f 79/104/75 77/102/75 13/14/75 
f 15/21/75 16/20/75 81/108/75 
f 81/108/75 79/107/75 15/21/75 
f 16/20/75 17/24/75 83/110/75 
f 83/110/75 81/108/75 16/20/75 
f 17/24/75 18/26/75 85/112/75 
f 85/112/75 83/110/75 17/24/75 
f 18/26/75 19/28/75 87/114/75 
f 87/114/75 85/112/75 18/26/75 
f 19/28/75 20/30/75 89/116/75 
f 89/116/75 87/114/75 19/28/75 
f 20/30/75 21/32/75 91/118/75 
f 91/118/75 89/116/75 20/30/75 
f 21/35/75 22/34/75 93/122/75 
f 93/122/75 91/121/75 21/35/75 
f 22/34/75 23/38/75 95/124/75 
f 95/124/75 93/122/75 22/34/75 
f 23/38/75 24/40/75 97/126/75 
f 97/126/75 95/124/75 23/38/75 
f 24/40/75 14/15/75 76/101/75 
f 76/101/75 97/126/75 24/40/75 
f 101/130/76 100/129/76 75/100/76 
f 75/100/76 74/99/76 101/130/76 
f 100/129/77 121/154/77 96/125/77 
f 96/125/77 75/100/77 100/129/77 
f 121/154/1 119/152/1 94/123/1 
f 94/123/1 96/125/1 121/154/1 
f 119/152/1 117/150/1 92/119/1 
f 92/119/1 94/123/1 119/152/1 
f 117/150/1 115/149/1 90/120/1 
f 90/120/1 92/119/1 117/150/1 
f 115/146/1 113/144/1 88/115/1 
f 88/115/1 90/117/1 115/146/1 
f 113/144/76 111/142/76 86/113/76 
f 86/113/76 88/115/76 113/144/76 
f 111/142/77 109/140/77 84/111/77 
f 84/111/77 86/113/77 111/142/77 
f 109/140/1 107/138/1 82/109/1 
f 82/109/1 84/111/1 109/140/1 
f 107/138/1 105/136/1 80/105/1 
f 80/105/1 82/109/1 107/138/1 
f 105/136/1 103/135/1 78/106/1 
f 78/106/1 80/105/1 105/136/1 
f 103/132/1 101/130/1 74/99/1 
f 74/99/1 78/103/1 103/132/1 
f 99/128/75 98/127/75 125/158/75 
f 125/158/75 124/157/75 99/128/75 
f 98/127/75 102/131/75 127/160/75 
f 127/160/75 125/158/75 98/127/75 
f 102/134/75 104/133/75 129/164/75 
f 129/164/75 127/163/75 102/134/75 
f 104/133/75 106/137/75 131/166/75 
f 131/166/75 129/164/75 104/133/75 
f 106/137/75 108/139/75 133/168/75 
f 133/168/75 131/166/75 106/137/75 
f 108/139/75 110/141/75 135/170/75 
f 135/170/75 133/168/75 108/139/75 
f 110/141/75 112/143/75 137/172/75 
f 137/172/75 135/170/75 110/141/75 
f 112/143/75 114/145/75 139/174/75 
f 139/174/75 137/172/75 112/143/75 
f 114/148/75 116/147/75 141/178/75 
f 141/178/75 139/177/75 114/148/75 
f 116/147/75 118/151/75 143/180/75 
f 143/180/75 141/178/75 116/147/75 
f 118/151/75 120/153/75 145/182/75 
f 145/182/75 143/180/75 118/151/75 
f 120/153/75 99/128/75 124/157/75 
f 124/157/75 145/182/75 120/153/75 
f 147/184/77 146/183/77 123/156/77 
f 123/156/1 122/155/1 147/184/1 
f 146/183/1 157/196/1 144/181/1 
f 144/181/76 123/156/76 146/183/76 
f 157/196/1 156/195/1 142/179/1 
f 142/179/1 144/181/1 157/196/1 
f 156/195/1 155/194/1 140/175/1 
f 140/175/1 142/179/1 156/195/1 
f 155/194/1 154/193/1 138/176/1 
f 138/176/1 140/175/1 155/194/1 
f 154/192/1 153/191/1 136/171/1 
f 136/171/1 138/173/1 154/192/1 
f 153/191/76 152/190/76 134/169/76 
f 134/169/76 136/171/76 153/191/76 
f 152/190/77 151/189/77 132/167/77 
f 132/167/77 134/169/77 152/190/77 
f 151/189/1 150/188/1 130/165/1 
f 130/165/1 132/167/1 151/189/1 
f 150/188/1 149/187/1 128/161/1 
f 128/161/1 130/165/1 150/188/1 
f 149/187/1 148/186/1 126/162/1 
f 126/162/1 128/161/1 149/187/1 
f 148/185/1 147/184/1 122/155/1 
f 122/155/1 126/159/1 148/185/1 
# 310 faces

