# 3ds Max Wavefront OBJ Exporter v0.97b - (c)2007 guruware
# File Created: 31.03.2019 03:11:41

mtllib SkyBox.mtl

#
# object Box068
#

v  -2500.0000 -2500.0000 2500.0000
v  -2500.0000 -2500.0000 -2500.0000
v  2500.0000 -2500.0000 -2500.0000
v  2500.0000 -2500.0000 2500.0000
v  -2500.0000 2500.0000 2500.0000
v  2500.0000 2500.0000 2500.0000
v  2500.0000 2500.0000 -2500.0000
v  -2500.0000 2500.0000 -2500.0000
# 8 vertices

vn 0.0000 -1.0000 -0.0000
vn 0.0000 1.0000 -0.0000
vn 0.0000 0.0000 1.0000
vn 1.0000 0.0000 -0.0000
vn 0.0000 0.0000 -1.0000
vn -1.0000 0.0000 -0.0000
# 6 vertex normals

vt 0.5702 0.9173 0.0000
vt 0.5702 0.0879 0.0000
vt 0.7776 0.0879 0.0000
vt 0.7776 0.9173 0.0000
vt 0.2366 0.0879 0.0000
vt 0.4440 0.0879 0.0000
vt 0.4440 0.9173 0.0000
vt 0.2366 0.9173 0.0000
vt 0.7466 0.0168 0.0000
vt 0.9901 0.0168 0.0000
vt 0.9901 0.9687 0.0000
vt 0.7466 0.9687 0.0000
vt 0.0164 0.0168 0.0000
vt 0.2598 0.0168 0.0000
vt 0.2598 0.9687 0.0000
vt 0.0164 0.9687 0.0000
vt 0.5032 0.0168 0.0000
vt 0.5032 0.9687 0.0000
# 18 texture coords

o Box068
g Box068
usemtl Material__884
f 1/1/1 2/2/1 3/3/1 
f 3/3/1 4/4/1 1/1/1 
f 5/5/2 6/6/2 7/7/2 
f 7/7/2 8/8/2 5/5/2 
f 1/9/3 4/10/3 6/11/3 
f 6/11/3 5/12/3 1/9/3 
f 4/13/4 3/14/4 7/15/4 
f 7/15/4 6/16/4 4/13/4 
f 3/14/5 2/17/5 8/18/5 
f 8/18/5 7/15/5 3/14/5 
f 2/17/6 1/9/6 5/12/6 
f 5/12/6 8/18/6 2/17/6 
# 12 faces

