# 3ds Max Wavefront OBJ Exporter v0.97b - (c)2007 guruware
# File Created: 01.04.2019 04:49:53

mtllib BulletD.mtl

#
# object Cylinder004
#

v  2.1947 -14.8018 -8.1906
v  0.4100 -24.1740 -1.5303
v  -0.4100 -24.1740 -1.5303
v  -2.1947 -14.8018 -8.1906
v  -1.1202 -24.1740 -1.1202
v  -5.9959 -14.8018 -5.9959
v  -1.5303 -24.1740 -0.4100
v  -8.1906 -14.8018 -2.1947
v  -1.5303 -24.1740 0.4100
v  -8.1906 -14.8018 2.1947
v  -1.1202 -24.1740 1.1202
v  -5.9959 -14.8018 5.9959
v  -0.4100 -24.1740 1.5303
v  -2.1947 -14.8018 8.1906
v  0.4100 -24.1740 1.5303
v  2.1947 -14.8018 8.1906
v  1.1202 -24.1740 1.1202
v  5.9959 -14.8018 5.9959
v  1.5303 -24.1740 0.4100
v  8.1906 -14.8018 2.1947
v  1.5303 -24.1740 -0.4100
v  8.1906 -14.8018 -2.1947
v  1.1202 -24.1740 -1.1202
v  5.9959 -14.8018 -5.9959
v  2.5601 109.3547 -9.5544
v  -2.5601 109.3547 -9.5544
v  -6.9943 109.3547 -6.9943
v  -9.5544 109.3547 -2.5601
v  -9.5544 109.3547 2.5601
v  -6.9943 109.3547 6.9943
v  -2.5601 109.3547 9.5544
v  2.5601 109.3547 9.5544
v  6.9943 109.3547 6.9943
v  9.5544 109.3547 2.5601
v  9.5544 109.3547 -2.5601
v  6.9943 109.3547 -6.9943
v  -6.6938 41.6880 -24.9816
v  6.6938 41.6880 -24.9816
v  6.1763 23.3796 -23.0504
v  -6.1763 23.3796 -23.0504
v  -18.2878 41.6880 -18.2878
v  -16.8741 23.3796 -16.8741
v  -24.9816 41.6880 -6.6938
v  -23.0504 23.3796 -6.1763
v  -24.9816 41.6880 6.6938
v  -23.0504 23.3796 6.1763
v  -18.2878 41.6880 18.2878
v  -16.8741 23.3796 16.8741
v  -6.6938 41.6880 24.9816
v  -6.1763 23.3796 23.0504
v  6.6938 41.6880 24.9816
v  6.1763 23.3796 23.0504
v  18.2878 41.6880 18.2878
v  16.8741 23.3796 16.8741
v  24.9816 41.6880 6.6938
v  23.0504 23.3796 6.1763
v  24.9816 41.6880 -6.6938
v  23.0504 23.3796 -6.1763
v  18.2878 41.6880 -18.2878
v  16.8741 23.3796 -16.8741
v  -4.2728 1.3555 -15.9463
v  4.2728 1.3555 -15.9463
v  -11.6735 1.3555 -11.6735
v  -15.9463 1.3555 -4.2728
v  -15.9463 1.3555 4.2728
v  -11.6735 1.3555 11.6735
v  -4.2728 1.3555 15.9463
v  4.2728 1.3555 15.9463
v  11.6735 1.3555 11.6735
v  15.9462 1.3555 4.2728
v  15.9463 1.3555 -4.2728
v  11.6735 1.3555 -11.6735
v  -5.0867 102.9839 -18.9837
v  5.0867 102.9839 -18.9837
v  6.1763 96.6131 -23.0504
v  -6.1763 96.6131 -23.0504
v  -13.8971 102.9839 -13.8971
v  -16.8741 96.6131 -16.8741
v  -18.9837 102.9839 -5.0867
v  -23.0504 96.6131 -6.1763
v  -18.9837 102.9839 5.0867
v  -23.0504 96.6131 6.1763
v  -13.8971 102.9839 13.8971
v  -16.8741 96.6131 16.8741
v  -5.0867 102.9839 18.9837
v  -6.1763 96.6131 23.0504
v  5.0867 102.9839 18.9837
v  6.1763 96.6131 23.0504
v  13.8970 102.9839 13.8971
v  16.8741 96.6131 16.8741
v  18.9837 102.9839 5.0867
v  23.0504 96.6131 6.1763
v  18.9837 102.9839 -5.0867
v  23.0504 96.6131 -6.1763
v  13.8971 102.9839 -13.8970
v  16.8741 96.6131 -16.8741
v  -6.6309 78.3047 -24.7467
v  6.6309 78.3047 -24.7468
v  6.8337 59.9964 -25.5036
v  -6.8337 59.9964 -25.5036
v  -19.4919 94.8971 -32.2099
v  -18.1487 94.8971 -32.9855
v  -18.1724 79.8723 -33.0740
v  -19.5567 79.8723 -32.2747
v  -24.7467 78.3047 -6.6309
v  -18.1159 78.3047 -18.1159
v  -18.6699 59.9964 -18.6699
v  -25.5036 59.9964 -6.8337
v  -24.7467 78.3047 6.6309
v  -25.5036 59.9964 6.8337
v  -32.2099 94.8971 19.4919
v  -32.9855 94.8971 18.1487
v  -33.0740 79.8723 18.1724
v  -32.2747 79.8723 19.5567
v  -6.6309 78.3047 24.7467
v  -18.1159 78.3047 18.1159
v  -18.6699 59.9964 18.6699
v  -6.8337 59.9964 25.5036
v  6.6309 78.3047 24.7467
v  6.8336 59.9964 25.5036
v  19.4919 94.8971 32.2099
v  18.1487 94.8971 32.9855
v  18.1724 79.8723 33.0740
v  19.5567 79.8723 32.2747
v  24.7467 78.3047 6.6309
v  18.1159 78.3047 18.1159
v  18.6699 59.9964 18.6699
v  25.5035 59.9964 6.8337
v  24.7467 78.3047 -6.6309
v  25.5036 59.9964 -6.8336
v  32.2099 94.8971 -19.4919
v  32.9855 94.8971 -18.1487
v  33.0740 79.8723 -18.1724
v  32.2747 79.8723 -19.5567
v  18.1159 78.3047 -18.1159
v  18.6699 59.9964 -18.6699
v  -19.3467 109.9218 -32.0647
v  -18.0955 109.9218 -32.7871
v  -32.0647 109.9218 19.3467
v  -32.7871 109.9218 18.0955
v  19.3467 109.9218 32.0647
v  18.0955 109.9218 32.7871
v  32.0647 109.9218 -19.3467
v  32.7871 109.9218 -18.0955
# 144 vertices

vn 0.1689 -0.7577 -0.6304
vn 0.0882 -0.9402 -0.3291
vn -0.0882 -0.9402 -0.3291
vn -0.1689 -0.7577 -0.6304
vn -0.2409 -0.9402 -0.2409
vn -0.4615 -0.7577 -0.4615
vn -0.3291 -0.9402 -0.0882
vn -0.6304 -0.7577 -0.1689
vn -0.3291 -0.9402 0.0882
vn -0.6304 -0.7577 0.1689
vn -0.2409 -0.9402 0.2409
vn -0.4615 -0.7577 0.4615
vn -0.0882 -0.9402 0.3291
vn -0.1689 -0.7577 0.6304
vn 0.0882 -0.9402 0.3291
vn 0.1689 -0.7577 0.6304
vn 0.2409 -0.9402 0.2409
vn 0.4615 -0.7577 0.4615
vn 0.3291 -0.9402 0.0882
vn 0.6304 -0.7577 0.1689
vn 0.3291 -0.9402 -0.0882
vn 0.6304 -0.7577 -0.1689
vn 0.2409 -0.9402 -0.2409
vn 0.4615 -0.7577 -0.4615
vn 0.0478 0.9828 -0.1783
vn -0.0478 0.9828 -0.1783
vn -0.1305 0.9828 -0.1305
vn -0.1783 0.9828 -0.0478
vn -0.1783 0.9828 0.0478
vn -0.1305 0.9828 0.1305
vn -0.0478 0.9828 0.1783
vn 0.0478 0.9828 0.1783
vn 0.1305 0.9828 0.1305
vn 0.1783 0.9828 0.0478
vn 0.1783 0.9828 -0.0478
vn 0.1305 0.9828 -0.1305
vn -0.2565 -0.1332 -0.9573
vn 0.2565 -0.1332 -0.9573
vn 0.2398 -0.3767 -0.8948
vn -0.2398 -0.3767 -0.8948
vn -0.7008 -0.1332 -0.7008
vn -0.6550 -0.3767 -0.6550
vn -0.9573 -0.1332 -0.2565
vn -0.8948 -0.3767 -0.2398
vn -0.9573 -0.1332 0.2565
vn -0.8948 -0.3767 0.2398
vn -0.7008 -0.1332 0.7008
vn -0.6550 -0.3767 0.6550
vn -0.2565 -0.1332 0.9573
vn -0.2398 -0.3767 0.8948
vn 0.2565 -0.1332 0.9573
vn 0.2398 -0.3767 0.8948
vn 0.7008 -0.1332 0.7008
vn 0.6550 -0.3767 0.6550
vn 0.9573 -0.1332 0.2565
vn 0.8948 -0.3767 0.2398
vn 0.9573 -0.1332 -0.2565
vn 0.8948 -0.3767 -0.2398
vn 0.7008 -0.1332 -0.7008
vn 0.6550 -0.3767 -0.6550
vn -0.2030 -0.6205 -0.7575
vn 0.2030 -0.6205 -0.7575
vn -0.5545 -0.6205 -0.5545
vn -0.7575 -0.6205 -0.2030
vn -0.7575 -0.6205 0.2030
vn -0.5545 -0.6205 0.5545
vn -0.2030 -0.6205 0.7575
vn 0.2030 -0.6205 0.7575
vn 0.5545 -0.6205 0.5545
vn 0.7575 -0.6205 0.2030
vn 0.7575 -0.6205 -0.2030
vn 0.5545 -0.6205 -0.5545
vn -0.1265 0.8724 -0.4721
vn 0.1265 0.8724 -0.4721
vn 0.2242 0.4996 -0.8367
vn 0.1381 0.4865 -0.8627
vn -0.3456 0.8724 -0.3456
vn -0.8162 0.4945 -0.2988
vn -0.4721 0.8724 -0.1265
vn -0.8367 0.4996 -0.2242
vn -0.4721 0.8724 0.1265
vn -0.8627 0.4865 -0.1381
vn -0.3456 0.8724 0.3456
vn -0.2988 0.4945 0.8162
vn -0.1265 0.8724 0.4721
vn -0.2242 0.4996 0.8367
vn 0.1265 0.8724 0.4721
vn -0.1381 0.4865 0.8627
vn 0.3456 0.8724 0.3456
vn 0.8162 0.4945 0.2988
vn 0.4721 0.8724 0.1265
vn 0.8367 0.4996 0.2242
vn 0.4721 0.8724 -0.1265
vn 0.8627 0.4865 0.1381
vn 0.3456 0.8724 -0.3456
vn 0.2988 0.4945 -0.8162
vn 0.3236 0.1033 -0.9405
vn 0.2565 0.1342 -0.9572
vn 0.2588 0.0129 -0.9658
vn -0.0363 0.0008 -0.9993
vn -0.4999 0.0188 -0.8659
vn -0.5000 0.0116 -0.8660
vn -0.9572 0.1342 -0.2565
vn -0.9786 0.1009 -0.1791
vn -0.8480 -0.0018 -0.5301
vn -0.9658 0.0129 -0.2588
vn -0.9405 0.1033 -0.3236
vn -0.9993 0.0008 0.0363
vn -0.8659 0.0188 0.4999
vn -0.8660 0.0116 0.5000
vn -0.2565 0.1342 0.9572
vn -0.1791 0.1009 0.9786
vn -0.5301 -0.0018 0.8480
vn -0.2588 0.0129 0.9658
vn -0.3236 0.1033 0.9405
vn 0.0363 0.0008 0.9993
vn 0.4999 0.0188 0.8659
vn 0.5000 0.0116 0.8660
vn 0.9572 0.1342 0.2565
vn 0.9786 0.1009 0.1791
vn 0.8480 -0.0018 0.5301
vn 0.9658 0.0129 0.2588
vn 0.9405 0.1033 0.3236
vn 0.9993 0.0008 -0.0363
vn 0.8659 0.0188 -0.4999
vn 0.8660 0.0116 -0.5000
vn 0.1791 0.1009 -0.9786
vn 0.5301 -0.0018 -0.8480
vn -0.4998 0.0261 -0.8657
vn -0.8657 0.0261 0.4998
vn 0.4998 0.0261 0.8657
vn 0.8657 0.0261 -0.4998
vn 0.2121 0.9055 0.3674
vn 0.6196 0.0309 -0.7843
vn 0.6378 0.0156 -0.7700
vn 0.5859 0.0196 -0.8102
vn -0.3179 -0.7719 -0.5506
vn -0.9946 0.0192 0.1020
vn -0.9975 0.0079 0.0709
vn -0.9884 0.0493 0.1438
vn 0.3674 0.9055 -0.2121
vn -0.7843 0.0309 -0.6196
vn -0.7700 0.0156 -0.6378
vn -0.8102 0.0196 -0.5859
vn -0.5506 -0.7719 0.3179
vn 0.1020 0.0192 0.9946
vn 0.0709 0.0079 0.9975
vn 0.1438 0.0493 0.9884
vn -0.2121 0.9055 -0.3674
vn -0.6196 0.0309 0.7843
vn -0.6378 0.0156 0.7700
vn -0.5859 0.0196 0.8102
vn 0.3179 -0.7719 0.5506
vn 0.9946 0.0192 -0.1020
vn 0.9975 0.0079 -0.0709
vn 0.9884 0.0493 -0.1438
vn -0.3674 0.9055 0.2121
vn 0.7843 0.0309 0.6196
vn 0.7700 0.0156 0.6378
vn 0.8102 0.0196 0.5859
vn 0.5506 -0.7719 -0.3179
vn -0.1020 0.0192 -0.9946
vn -0.0709 0.0079 -0.9975
vn -0.1438 0.0493 -0.9884
# 164 vertex normals

vt 0.1531 0.7396 -356.9806
vt 0.1657 0.7116 -319.2377
vt 0.1693 0.7130 -356.9806
vt 0.1667 0.7431 -356.9806
vt 0.1730 0.7132 -356.9806
vt 0.1807 0.7423 -356.9806
vt 0.1763 0.7122 -356.9806
vt 0.1940 0.7371 -356.9806
vt 0.1787 0.7100 -356.9806
vt 0.2055 0.7271 -356.9806
vt 0.1193 0.7187 -358.7448
vt 0.1491 0.7026 -358.7448
vt 0.1513 0.7051 -320.8154
vt 0.1310 0.7304 -358.7448
vt 0.1547 0.7075 -358.7448
vt 0.1445 0.7372 -358.7448
vt 0.1585 0.7086 -358.7448
vt 0.1588 0.7395 -358.7448
vt 0.1622 0.7084 -358.7448
vt 0.1729 0.7373 -358.7448
vt 0.1654 0.7070 -358.7448
vt 0.1859 0.7306 -358.7448
vt 0.1676 0.7046 -358.7448
vt 0.1966 0.7192 -358.7448
vt 0.1307 0.7193 -356.9806
vt 0.1610 0.7073 -356.9806
vt 0.1628 0.7099 -356.9806
vt 0.1406 0.7318 -356.9806
vt 0.6694 0.0686 -20.4557
vt 0.6816 0.1021 20.4557
vt 0.6754 0.1373 -20.4557
vt 0.6525 0.1647 -20.4557
vt 0.6189 0.1769 -20.4557
vt 0.5837 0.1707 -20.4557
vt 0.5564 0.1477 -20.4557
vt 0.5442 0.1142 20.4557
vt 0.5504 0.0790 -20.4557
vt 0.5733 0.0516 -20.4557
vt 0.6069 0.0394 -20.4557
vt 0.6421 0.0456 -20.4557
vt 0.1582 0.8305 -356.9806
vt 0.1268 0.8274 -356.9806
vt 0.1313 0.8044 -356.9806
vt 0.1602 0.8087 -356.9806
vt 0.1890 0.8317 -356.9806
vt 0.1891 0.8090 -356.9806
vt 0.2229 0.8311 -356.9806
vt 0.2203 0.8053 -356.9806
vt 0.2641 0.8281 -356.9806
vt 0.2572 0.7955 -356.9806
vt 0.0902 0.8263 -358.7448
vt 0.0496 0.8157 -358.7448
vt 0.0603 0.7854 -358.7448
vt 0.0965 0.7995 -358.7448
vt 0.1269 0.8296 -358.7448
vt 0.1291 0.8057 -358.7448
vt 0.1592 0.8294 -358.7448
vt 0.1590 0.8070 -358.7448
vt 0.1908 0.8273 -358.7448
vt 0.1885 0.8043 -358.7448
vt 0.2252 0.8231 -358.7448
vt 0.2198 0.7972 -358.7448
vt 0.2668 0.8157 -358.7448
vt 0.2563 0.7833 -358.7448
vt 0.0915 0.8204 -356.9806
vt 0.0532 0.8060 -356.9806
vt 0.0667 0.7778 -356.9806
vt 0.1003 0.7951 -356.9806
vt 0.1635 0.7759 -356.9806
vt 0.1407 0.7713 -356.9806
vt 0.1865 0.7753 -356.9806
vt 0.2100 0.7692 -356.9806
vt 0.2342 0.7557 -356.9806
vt 0.1110 0.7626 -358.7448
vt 0.0869 0.7466 -358.7448
vt 0.1352 0.7709 -358.7448
vt 0.1589 0.7733 -358.7448
vt 0.1822 0.7703 -358.7448
vt 0.2056 0.7615 -358.7448
vt 0.2287 0.7453 -358.7448
vt 0.1182 0.7609 -356.9806
vt 0.0965 0.7429 -356.9806
vt 0.0938 0.1503 -0.6742
vt 0.0653 0.1399 -0.6742
vt 0.0458 0.1167 -0.6742
vt 0.0405 0.0868 0.6742
vt 0.0509 0.0583 -0.6742
vt 0.0741 0.0388 -0.6742
vt 0.1040 0.0336 -0.6742
vt 0.1325 0.0439 -0.6742
vt 0.1520 0.0672 -0.6742
vt 0.1573 0.0970 0.6742
vt 0.1469 0.1255 -0.6742
vt 0.1237 0.1450 -0.6742
vt 0.1548 0.9083 -356.9806
vt 0.1290 0.9110 -356.9806
vt 0.1264 0.8975 -356.9806
vt 0.1556 0.8959 -356.9806
vt 0.1801 0.9110 -356.9806
vt 0.1824 0.8993 -356.9806
vt 0.2063 0.9191 -356.9806
vt 0.2118 0.9055 -356.9806
vt 0.2344 0.9368 -356.9806
vt 0.2465 0.9213 -356.9806
vt 0.1125 0.9280 -358.7448
vt 0.0941 0.9551 -358.7448
vt 0.0777 0.9481 -358.7448
vt 0.1015 0.9146 -358.7448
vt 0.1382 0.9145 -358.7448
vt 0.1341 0.9011 -358.7448
vt 0.1642 0.9090 -358.7448
vt 0.1636 0.8963 -358.7448
vt 0.1903 0.9090 -358.7448
vt 0.1913 0.8968 -358.7448
vt 0.2177 0.9144 -358.7448
vt 0.2218 0.9000 -358.7448
vt 0.2482 0.9294 -358.7448
vt 0.2588 0.9123 -358.7448
vt 0.1026 0.9215 -356.9806
vt 0.0820 0.9458 -356.9806
vt 0.0668 0.9374 -356.9806
vt 0.0933 0.9072 -356.9806
vt 0.1543 0.9376 -356.9806
vt 0.1373 0.9397 -356.9806
vt 0.1725 0.9401 -356.9806
vt 0.1903 0.9475 -356.9806
vt 0.2053 0.9604 356.9806
vt 0.1353 0.9516 -358.7448
vt 0.1262 0.9658 -358.7448
vt 0.1498 0.9428 -358.7448
vt 0.1669 0.9389 -358.7448
vt 0.1856 0.9394 -358.7448
vt 0.2045 0.9450 -358.7448
vt 0.2212 0.9566 358.7448
vt 0.1224 0.9467 -356.9806
vt 0.1121 0.9596 -356.9806
vt 0.1560 0.8736 -356.9806
vt 0.1242 0.8740 -356.9806
vt 0.1242 0.8504 -356.9806
vt 0.1567 0.8517 -356.9806
vt 0.1177 0.5289 -33.4124
vt 0.1140 0.5276 -33.4124
vt 0.1191 0.5099 -33.4124
vt 0.1232 0.5120 -33.4124
vt 0.2186 0.8814 -356.9806
vt 0.1853 0.8763 -356.9806
vt 0.1877 0.8536 -356.9806
vt 0.2222 0.8564 -356.9806
vt 0.2580 0.8913 -356.9806
vt 0.2640 0.8601 -356.9806
vt 0.2328 0.4118 -33.4124
vt 0.2291 0.4105 -33.4124
vt 0.2341 0.3927 -33.4124
vt 0.2383 0.3948 -33.4124
vt 0.1293 0.8774 -358.7448
vt 0.0911 0.8851 -358.7448
vt 0.0866 0.8550 -358.7448
vt 0.1268 0.8533 -358.7448
vt 0.1617 0.8735 -358.7448
vt 0.1600 0.8512 -358.7448
vt 0.5474 0.5500 -30.6634
vt 0.5435 0.5497 -30.6634
vt 0.5436 0.5313 -30.6634
vt 0.5482 0.5322 -30.6634
vt 0.2262 0.8748 -358.7448
vt 0.1918 0.8731 -358.7448
vt 0.1917 0.8498 -358.7448
vt 0.2272 0.8490 -358.7448
vt 0.2673 0.8806 -358.7448
vt 0.2701 0.8483 -358.7448
vt 0.5474 0.4186 -30.6634
vt 0.5435 0.4183 -30.6634
vt 0.5436 0.3999 -30.6634
vt 0.5482 0.4008 -30.6634
vt 0.0863 0.8776 -356.9806
vt 0.0851 0.8479 -356.9806
vt 0.1125 0.5411 -33.4124
vt 0.1105 0.5396 -33.4124
vt 0.2276 0.4240 -33.4124
vt 0.2255 0.4224 -33.4124
vt 0.5457 0.5631 -30.6634
vt 0.5433 0.5622 -30.6634
vt 0.5457 0.4318 -30.6634
vt 0.5433 0.4308 -30.6634
vt 0.0427 0.8455 -358.7448
vt 0.0434 0.8341 -356.9806
vt 0.1494 0.5850 -33.4124
vt 0.0676 0.5605 33.4124
vt 0.0561 0.5002 -33.4124
vt 0.0838 0.4421 14.3317
vt 0.1778 0.4657 -33.4124
vt 0.1842 0.5294 -33.4124
vt 0.2645 0.4679 -33.4124
vt 0.1827 0.4434 33.4124
vt 0.1712 0.3831 -33.4124
vt 0.1988 0.3250 14.3317
vt 0.2929 0.3486 -33.4124
vt 0.2993 0.4122 -33.4124
vt 0.5930 0.5956 -30.6634
vt 0.5076 0.5939 30.6634
vt 0.4804 0.5388 -30.6634
vt 0.4914 0.4754 13.1526
vt 0.5883 0.4730 -30.6634
vt 0.6115 0.5326 -30.6634
vt 0.5930 0.4642 -30.6634
vt 0.5076 0.4625 30.6634
vt 0.4804 0.4074 -30.6634
vt 0.4914 0.3440 13.1526
vt 0.5883 0.3416 -30.6634
vt 0.6115 0.4012 -30.6634
# 210 texture coords

o Cylinder004
g Cylinder004
usemtl Material__28
f 1/1/1 2/2/2 3/3/3 
f 3/3/3 4/4/4 1/1/1 
f 4/4/4 3/3/3 5/5/5 
f 5/5/5 6/6/6 4/4/4 
f 6/6/6 5/5/5 7/7/7 
f 7/7/7 8/8/8 6/6/6 
f 8/8/8 7/7/7 9/9/9 
f 9/9/9 10/10/10 8/8/8 
f 10/11/10 9/12/9 11/13/11 
f 11/13/11 12/14/12 10/11/10 
f 12/14/12 11/13/11 13/15/13 
f 13/15/13 14/16/14 12/14/12 
f 14/16/14 13/15/13 15/17/15 
f 15/17/15 16/18/16 14/16/14 
f 16/18/16 15/17/15 17/19/17 
f 17/19/17 18/20/18 16/18/16 
f 18/20/18 17/19/17 19/21/19 
f 19/21/19 20/22/20 18/20/18 
f 20/22/20 19/21/19 21/23/21 
f 21/23/21 22/24/22 20/22/20 
f 22/25/22 21/26/21 23/27/23 
f 23/27/23 24/28/24 22/25/22 
f 24/28/24 23/27/23 2/2/2 
f 2/2/2 1/1/1 24/28/24 
f 25/29/25 26/30/26 27/31/27 
f 27/31/27 28/32/28 29/33/29 
f 29/33/29 30/34/30 31/35/31 
f 27/31/27 29/33/29 31/35/31 
f 31/35/31 32/36/32 33/37/33 
f 33/37/33 34/38/34 35/39/35 
f 31/35/31 33/37/33 35/39/35 
f 27/31/27 31/35/31 35/39/35 
f 25/29/25 27/31/27 35/39/35 
f 36/40/36 25/29/25 35/39/35 
f 37/41/37 38/42/38 39/43/39 
f 39/43/39 40/44/40 37/41/37 
f 41/45/41 37/41/37 40/44/40 
f 40/44/40 42/46/42 41/45/41 
f 43/47/43 41/45/41 42/46/42 
f 42/46/42 44/48/44 43/47/43 
f 45/49/45 43/47/43 44/48/44 
f 44/48/44 46/50/46 45/49/45 
f 47/51/47 45/52/45 46/53/46 
f 46/53/46 48/54/48 47/51/47 
f 49/55/49 47/51/47 48/54/48 
f 48/54/48 50/56/50 49/55/49 
f 51/57/51 49/55/49 50/56/50 
f 50/56/50 52/58/52 51/57/51 
f 53/59/53 51/57/51 52/58/52 
f 52/58/52 54/60/54 53/59/53 
f 55/61/55 53/59/53 54/60/54 
f 54/60/54 56/62/56 55/61/55 
f 57/63/57 55/61/55 56/62/56 
f 56/62/56 58/64/58 57/63/57 
f 59/65/59 57/66/57 58/67/58 
f 58/67/58 60/68/60 59/65/59 
f 38/42/38 59/65/59 60/68/60 
f 60/68/60 39/43/39 38/42/38 
f 61/69/61 62/70/62 1/1/1 
f 1/1/1 4/4/4 61/69/61 
f 63/71/63 61/69/61 4/4/4 
f 4/4/4 6/6/6 63/71/63 
f 64/72/64 63/71/63 6/6/6 
f 6/6/6 8/8/8 64/72/64 
f 65/73/65 64/72/64 8/8/8 
f 8/8/8 10/10/10 65/73/65 
f 66/74/66 65/75/65 10/11/10 
f 10/11/10 12/14/12 66/74/66 
f 67/76/67 66/74/66 12/14/12 
f 12/14/12 14/16/14 67/76/67 
f 68/77/68 67/76/67 14/16/14 
f 14/16/14 16/18/16 68/77/68 
f 69/78/69 68/77/68 16/18/16 
f 16/18/16 18/20/18 69/78/69 
f 70/79/70 69/78/69 18/20/18 
f 18/20/18 20/22/20 70/79/70 
f 71/80/71 70/79/70 20/22/20 
f 20/22/20 22/24/22 71/80/71 
f 72/81/72 71/82/71 22/25/22 
f 22/25/22 24/28/24 72/81/72 
f 62/70/62 72/81/72 24/28/24 
f 24/28/24 1/1/1 62/70/62 
f 3/83/3 2/84/2 23/85/23 
f 3/83/3 23/85/23 21/86/21 
f 3/83/3 21/86/21 19/87/19 
f 3/83/3 19/87/19 17/88/17 
f 3/83/3 17/88/17 15/89/15 
f 3/83/3 15/89/15 13/90/13 
f 3/83/3 13/90/13 11/91/11 
f 3/83/3 11/91/11 9/92/9 
f 3/83/3 9/92/9 7/93/7 
f 3/83/3 7/93/7 5/94/5 
f 73/95/73 74/96/74 75/97/75 
f 75/97/75 76/98/76 73/95/73 
f 77/99/77 73/95/73 76/98/76 
f 76/98/76 78/100/78 77/99/77 
f 79/101/79 77/99/77 78/100/78 
f 78/100/78 80/102/80 79/101/79 
f 81/103/81 79/101/79 80/102/80 
f 80/102/80 82/104/82 81/103/81 
f 83/105/83 81/106/81 82/107/82 
f 82/107/82 84/108/84 83/105/83 
f 85/109/85 83/105/83 84/108/84 
f 84/108/84 86/110/86 85/109/85 
f 87/111/87 85/109/85 86/110/86 
f 86/110/86 88/112/88 87/111/87 
f 89/113/89 87/111/87 88/112/88 
f 88/112/88 90/114/90 89/113/89 
f 91/115/91 89/113/89 90/114/90 
f 90/114/90 92/116/92 91/115/91 
f 93/117/93 91/115/91 92/116/92 
f 92/116/92 94/118/94 93/117/93 
f 95/119/95 93/120/93 94/121/94 
f 94/121/94 96/122/96 95/119/95 
f 74/96/74 95/119/95 96/122/96 
f 96/122/96 75/97/75 74/96/74 
f 26/123/26 25/124/25 74/96/74 
f 74/96/74 73/95/73 26/123/26 
f 27/125/27 26/123/26 73/95/73 
f 73/95/73 77/99/77 27/125/27 
f 28/126/28 27/125/27 77/99/77 
f 77/99/77 79/101/79 28/126/28 
f 29/127/29 28/126/28 79/101/79 
f 79/101/79 81/103/81 29/127/29 
f 30/128/30 29/129/29 81/106/81 
f 81/106/81 83/105/83 30/128/30 
f 31/130/31 30/128/30 83/105/83 
f 83/105/83 85/109/85 31/130/31 
f 32/131/32 31/130/31 85/109/85 
f 85/109/85 87/111/87 32/131/32 
f 33/132/33 32/131/32 87/111/87 
f 87/111/87 89/113/89 33/132/33 
f 34/133/34 33/132/33 89/113/89 
f 89/113/89 91/115/91 34/133/34 
f 35/134/35 34/133/34 91/115/91 
f 91/115/91 93/117/93 35/134/35 
f 36/135/36 35/136/35 93/120/93 
f 93/120/93 95/119/95 36/135/36 
f 25/124/25 36/135/36 95/119/95 
f 95/119/95 74/96/74 25/124/25 
f 97/137/97 98/138/98 99/139/99 
f 99/139/99 100/140/100 97/137/97 
f 101/141/101 102/142/101 103/143/102 
f 103/143/102 104/144/102 101/141/101 
f 105/145/103 106/146/104 107/147/105 
f 107/147/105 108/148/106 105/145/103 
f 109/149/107 105/145/103 108/148/106 
f 108/148/106 110/150/108 109/149/107 
f 111/151/109 112/152/109 113/153/110 
f 113/153/110 114/154/110 111/151/109 
f 115/155/111 116/156/112 117/157/113 
f 117/157/113 118/158/114 115/155/111 
f 119/159/115 115/155/111 118/158/114 
f 118/158/114 120/160/116 119/159/115 
f 121/161/117 122/162/117 123/163/118 
f 123/163/118 124/164/118 121/161/117 
f 125/165/119 126/166/120 127/167/121 
f 127/167/121 128/168/122 125/165/119 
f 129/169/123 125/165/119 128/168/122 
f 128/168/122 130/170/124 129/169/123 
f 131/171/125 132/172/125 133/173/126 
f 133/173/126 134/174/126 131/171/125 
f 98/138/98 135/175/127 136/176/128 
f 136/176/128 99/139/99 98/138/98 
f 76/98/76 75/97/75 98/138/98 
f 98/138/98 97/137/97 76/98/76 
f 137/177/129 138/178/129 102/142/101 
f 102/142/101 101/141/101 137/177/129 
f 80/102/80 78/100/78 106/146/104 
f 106/146/104 105/145/103 80/102/80 
f 82/104/82 80/102/80 105/145/103 
f 105/145/103 109/149/107 82/104/82 
f 139/179/130 140/180/130 112/152/109 
f 112/152/109 111/151/109 139/179/130 
f 86/110/86 84/108/84 116/156/112 
f 116/156/112 115/155/111 86/110/86 
f 88/112/88 86/110/86 115/155/111 
f 115/155/111 119/159/115 88/112/88 
f 141/181/131 142/182/131 122/162/117 
f 122/162/117 121/161/117 141/181/131 
f 92/116/92 90/114/90 126/166/120 
f 126/166/120 125/165/119 92/116/92 
f 94/118/94 92/116/92 125/165/119 
f 125/165/119 129/169/123 94/118/94 
f 143/183/132 144/184/132 132/172/125 
f 132/172/125 131/171/125 143/183/132 
f 75/97/75 96/122/96 135/175/127 
f 135/175/127 98/138/98 75/97/75 
f 100/140/100 99/139/99 38/42/38 
f 38/42/38 37/41/37 100/140/100 
f 107/147/105 100/140/100 37/41/37 
f 37/41/37 41/45/41 107/147/105 
f 108/148/106 107/147/105 41/45/41 
f 41/45/41 43/47/43 108/148/106 
f 110/150/108 108/148/106 43/47/43 
f 43/47/43 45/49/45 110/150/108 
f 117/157/113 110/185/108 45/52/45 
f 45/52/45 47/51/47 117/157/113 
f 118/158/114 117/157/113 47/51/47 
f 47/51/47 49/55/49 118/158/114 
f 120/160/116 118/158/114 49/55/49 
f 49/55/49 51/57/51 120/160/116 
f 127/167/121 120/160/116 51/57/51 
f 51/57/51 53/59/53 127/167/121 
f 128/168/122 127/167/121 53/59/53 
f 53/59/53 55/61/55 128/168/122 
f 130/170/124 128/168/122 55/61/55 
f 55/61/55 57/63/57 130/170/124 
f 136/176/128 130/186/124 57/66/57 
f 57/66/57 59/65/59 136/176/128 
f 99/139/99 136/176/128 59/65/59 
f 59/65/59 38/42/38 99/139/99 
f 40/44/40 39/43/39 62/70/62 
f 62/70/62 61/69/61 40/44/40 
f 42/46/42 40/44/40 61/69/61 
f 61/69/61 63/71/63 42/46/42 
f 44/48/44 42/46/42 63/71/63 
f 63/71/63 64/72/64 44/48/44 
f 46/50/46 44/48/44 64/72/64 
f 64/72/64 65/73/65 46/50/46 
f 48/54/48 46/53/46 65/75/65 
f 65/75/65 66/74/66 48/54/48 
f 50/56/50 48/54/48 66/74/66 
f 66/74/66 67/76/67 50/56/50 
f 52/58/52 50/56/50 67/76/67 
f 67/76/67 68/77/68 52/58/52 
f 54/60/54 52/58/52 68/77/68 
f 68/77/68 69/78/69 54/60/54 
f 56/62/56 54/60/54 69/78/69 
f 69/78/69 70/79/70 56/62/56 
f 58/64/58 56/62/56 70/79/70 
f 70/79/70 71/80/71 58/64/58 
f 60/68/60 58/67/58 71/82/71 
f 71/82/71 72/81/72 60/68/60 
f 39/43/39 60/68/60 72/81/72 
f 72/81/72 62/70/62 39/43/39 
f 78/187/133 76/188/133 138/178/133 
f 138/178/133 137/177/133 78/187/133 
f 76/188/76 97/189/97 102/142/134 
f 102/142/134 138/178/135 76/188/76 
f 97/189/97 100/190/100 103/143/136 
f 103/143/136 102/142/134 97/189/97 
f 100/190/137 107/191/137 104/144/137 
f 104/144/137 103/143/137 100/190/137 
f 107/191/105 106/192/104 101/141/138 
f 101/141/138 104/144/139 107/191/105 
f 106/192/104 78/187/78 137/177/140 
f 137/177/140 101/141/138 106/192/104 
f 84/193/141 82/194/141 140/180/141 
f 140/180/141 139/179/141 84/193/141 
f 82/194/82 109/195/107 112/152/142 
f 112/152/142 140/180/143 82/194/82 
f 109/195/107 110/196/108 113/153/144 
f 113/153/144 112/152/142 109/195/107 
f 110/196/145 117/197/145 114/154/145 
f 114/154/145 113/153/145 110/196/145 
f 117/197/113 116/198/112 111/151/146 
f 111/151/146 114/154/147 117/197/113 
f 116/198/112 84/193/84 139/179/148 
f 139/179/148 111/151/146 116/198/112 
f 90/199/149 88/200/149 142/182/149 
f 142/182/149 141/181/149 90/199/149 
f 88/200/88 119/201/115 122/162/150 
f 122/162/150 142/182/151 88/200/88 
f 119/201/115 120/202/116 123/163/152 
f 123/163/152 122/162/150 119/201/115 
f 120/202/153 127/203/153 124/164/153 
f 124/164/153 123/163/153 120/202/153 
f 127/203/121 126/204/120 121/161/154 
f 121/161/154 124/164/155 127/203/121 
f 126/204/120 90/199/90 141/181/156 
f 141/181/156 121/161/154 126/204/120 
f 96/205/157 94/206/157 144/184/157 
f 144/184/157 143/183/157 96/205/157 
f 94/206/94 129/207/123 132/172/158 
f 132/172/158 144/184/159 94/206/94 
f 129/207/123 130/208/124 133/173/160 
f 133/173/160 132/172/158 129/207/123 
f 130/208/161 136/209/161 134/174/161 
f 134/174/161 133/173/161 130/208/161 
f 136/209/128 135/210/127 131/171/162 
f 131/171/162 134/174/163 136/209/128 
f 135/210/127 96/205/96 143/183/164 
f 143/183/164 131/171/162 135/210/127 
# 284 faces

